<?xml version="1.0" standalone="no"?>
<!DOCTYPE svg PUBLIC "-//W3C//DTD SVG 20010904//EN"
 "http://www.w3.org/TR/2001/REC-SVG-20010904/DTD/svg10.dtd">
<svg version="1.0" xmlns="http://www.w3.org/2000/svg"
 width="624.000000pt" height="904.000000pt" viewBox="0 0 624.000000 904.000000"
 preserveAspectRatio="xMidYMid meet">
<metadata>
Created by potrace 1.16, written by Peter Selinger 2001-2019
</metadata>
<g transform="translate(0.000000,904.000000) scale(0.100000,-0.100000)"
fill="#3BBDB9" stroke="none">
<path d="M831 9033 c-44 -18 -313 -207 -378 -266 -23 -21 -47 -36 -53 -32 -6
4 -9 3 -8 -2 4 -11 -272 -284 -282 -278 -4 3 -7 -3 -6 -13 0 -9 -4 -16 -11
-15 -7 2 -10 -3 -8 -10 3 -7 -15 -34 -40 -61 l-45 -50 2 -699 3 -699 50 -28
c156 -91 251 -136 370 -177 55 -18 109 -38 120 -43 11 -5 65 -23 120 -40 55
-18 125 -40 155 -50 30 -10 87 -27 125 -39 208 -62 238 -73 261 -96 14 -14 30
-25 37 -25 7 -1 29 -22 49 -48 20 -26 43 -56 52 -67 9 -11 34 -47 56 -80 22
-33 61 -87 85 -120 25 -33 52 -70 61 -82 12 -17 15 -47 12 -165 -8 -383 6
-882 28 -993 2 -11 11 -71 19 -134 8 -62 17 -116 19 -120 4 -6 45 -236 66
-371 17 -110 53 -268 81 -350 4 -14 22 -72 39 -130 17 -58 40 -136 51 -175 27
-90 70 -209 79 -215 4 -3 13 -18 21 -35 9 -16 35 -66 58 -110 24 -44 55 -102
69 -130 14 -27 31 -57 38 -65 7 -8 38 -64 69 -125 76 -147 88 -169 103 -178 6
-4 12 -12 12 -17 0 -8 59 -109 70 -120 11 -11 29 -72 24 -84 -3 -7 -56 -60
-118 -118 -102 -97 -256 -280 -256 -306 0 -6 -3 -12 -8 -14 -12 -5 -112 -163
-112 -177 0 -5 -4 -11 -9 -13 -23 -8 -168 -342 -206 -473 -10 -33 -21 -69 -25
-80 -4 -11 -17 -45 -28 -75 -11 -30 -26 -82 -32 -115 -7 -33 -24 -98 -40 -145
-15 -47 -38 -119 -51 -160 -24 -78 -90 -227 -119 -270 -10 -14 -44 -77 -77
-140 -33 -63 -73 -140 -90 -170 -16 -30 -37 -75 -47 -99 -10 -25 -25 -56 -35
-70 -10 -14 -22 -36 -25 -48 -7 -22 -5 -23 63 -23 66 0 71 1 77 24 3 14 12 27
20 30 7 3 11 11 9 18 -5 14 156 341 182 370 9 10 19 15 24 13 4 -3 11 0 15 6
4 8 3 9 -4 5 -32 -20 6 81 59 155 10 15 19 32 19 37 0 6 11 24 25 40 14 16 35
52 48 78 12 27 52 92 87 144 36 52 80 124 98 160 18 36 43 74 56 85 12 12 21
25 19 30 -2 6 8 23 22 39 14 16 25 32 25 36 0 4 13 24 29 44 16 21 31 41 33
45 2 5 18 12 36 16 32 7 33 6 26 -22 -4 -15 -22 -54 -40 -86 -19 -32 -34 -62
-34 -67 0 -5 -9 -14 -20 -20 -11 -6 -18 -15 -14 -21 5 -9 -25 -55 -66 -100
-26 -30 -35 -42 -64 -94 -16 -27 -35 -57 -43 -66 -8 -9 -13 -20 -11 -25 2 -10
-52 -118 -88 -176 -13 -21 -24 -44 -24 -52 0 -9 -9 -20 -20 -26 -11 -6 -20
-20 -20 -31 0 -12 -7 -33 -15 -47 -8 -15 -21 -44 -29 -65 -14 -33 -18 -37 -35
-28 -35 19 -41 12 -19 -24 19 -33 19 -37 4 -54 -9 -10 -16 -23 -16 -29 0 -17
-43 -102 -51 -102 -5 0 -12 7 -16 15 -5 9 -13 11 -22 6 -11 -7 -10 -11 6 -21
20 -13 20 -14 2 -71 -10 -32 -30 -80 -44 -106 -14 -26 -25 -51 -25 -55 0 -5
14 -8 30 -8 23 0 30 4 30 20 0 13 7 20 19 20 17 0 19 5 14 36 -5 29 -2 40 12
50 11 8 13 14 7 14 -7 0 -12 7 -12 15 0 10 10 15 26 15 21 0 24 3 15 14 -13
15 4 66 22 66 5 0 7 7 3 15 -8 21 3 45 20 45 14 0 18 17 14 53 -1 11 7 21 19
24 12 3 21 11 21 19 0 7 9 18 20 24 11 6 20 21 20 35 0 13 5 27 10 30 6 4 8
10 5 15 -3 5 3 15 15 22 12 8 20 23 20 39 0 18 6 28 19 32 14 3 18 11 14 26
-3 12 -1 21 6 21 6 0 8 7 4 17 -5 12 -2 15 8 11 12 -5 14 0 11 22 -3 20 4 37
27 62 17 19 28 38 24 41 -3 4 2 9 11 13 9 3 16 14 16 23 0 10 9 27 21 40 12
12 22 29 23 36 1 8 12 26 24 40 26 30 27 33 5 37 -12 2 -10 6 10 17 23 12 28
12 43 -4 15 -15 16 -19 3 -29 -14 -11 -47 -91 -56 -136 -3 -14 -11 -29 -17
-35 -7 -5 -20 -32 -29 -59 -10 -28 -27 -60 -38 -72 -12 -13 -22 -31 -23 -41
-1 -10 -18 -53 -39 -96 -20 -42 -37 -82 -37 -87 0 -6 -4 -10 -10 -10 -5 0 -10
-6 -10 -14 0 -7 -7 -19 -15 -26 -8 -7 -15 -21 -15 -31 0 -11 -4 -19 -10 -19
-5 0 -10 -12 -10 -28 0 -15 -11 -44 -25 -64 -14 -20 -25 -42 -25 -49 0 -7 -6
-20 -13 -28 -7 -9 -22 -36 -32 -61 -10 -25 -27 -57 -37 -72 -31 -45 -25 -48
80 -48 101 0 119 4 102 25 -16 19 31 125 56 125 6 0 12 12 12 27 0 14 6 32 15
38 8 6 15 20 14 30 -1 12 7 24 21 30 12 5 22 16 22 23 0 7 6 15 13 18 9 3 12
16 9 34 -3 23 0 32 16 37 21 8 22 9 22 42 0 11 7 27 16 35 8 9 13 20 10 25 -8
13 43 61 59 55 11 -5 13 2 9 28 -5 27 -1 38 21 61 15 15 32 27 36 27 5 0 6 14
3 30 -6 28 -5 30 24 30 38 0 44 9 33 48 -8 26 -6 32 10 37 10 4 19 13 19 21 0
8 5 14 10 14 6 0 16 11 22 25 6 14 16 25 23 25 7 0 10 11 7 30 -3 23 0 30 13
30 10 0 15 5 12 14 -6 16 55 111 82 128 10 6 16 19 14 28 -3 10 6 26 21 38 15
11 26 24 25 29 -5 27 4 45 28 54 22 8 24 12 13 19 -8 6 -11 10 -7 10 23 0 67
-45 82 -83 20 -53 18 -58 -79 -231 -41 -72 -80 -143 -87 -158 -178 -349 -379
-769 -379 -790 0 -4 12 -8 26 -8 16 0 24 5 21 13 -6 18 21 67 38 67 14 0 20
12 16 34 -1 4 3 14 9 20 5 7 8 15 5 18 -3 3 4 13 15 23 11 10 20 24 20 32 0 7
4 13 9 13 11 0 51 75 51 96 0 10 6 14 14 11 19 -8 36 15 39 50 2 20 8 27 20
25 12 -2 17 4 17 19 0 18 4 20 26 15 15 -4 23 -3 20 3 -3 5 0 11 8 14 10 4 11
17 6 51 -8 51 -5 56 22 56 12 0 23 11 30 31 l11 31 24 -26 c26 -28 44 -36 22
-10 -7 9 -19 32 -25 50 -9 27 -9 34 1 34 7 0 21 25 30 55 13 40 23 55 36 55
10 0 26 12 36 27 10 16 21 31 26 34 4 3 5 13 1 22 -3 10 -1 17 5 17 6 0 11 7
11 15 0 8 8 15 18 15 14 0 15 2 2 10 -15 9 -13 11 13 14 6 1 11 9 11 19 -1 10
5 17 17 17 11 0 16 5 13 13 -4 12 34 67 47 67 13 0 61 -79 54 -90 -3 -6 -1 -9
6 -8 18 4 23 -30 8 -48 -7 -8 -21 -13 -33 -12 -12 2 -20 -2 -19 -9 2 -7 -7
-15 -20 -18 -12 -3 -28 -19 -35 -35 -7 -16 -22 -32 -33 -35 -11 -4 -18 -9 -15
-12 11 -11 -15 -43 -36 -43 -16 0 -19 -5 -15 -22 3 -12 1 -31 -6 -42 -6 -12
-10 -31 -8 -43 1 -13 -2 -23 -8 -23 -5 0 -13 -9 -16 -20 -3 -11 -14 -27 -23
-37 -11 -11 -13 -18 -5 -20 11 -4 7 -38 -7 -58 -4 -5 -13 -32 -20 -60 -7 -27
-21 -57 -31 -66 -10 -9 -16 -19 -13 -22 12 -12 -23 -98 -71 -172 -28 -44 -62
-97 -74 -117 l-23 -38 1517 0 c942 0 1514 4 1510 9 -3 6 3 14 12 20 15 8 15
10 3 11 -12 0 -15 11 -14 53 2 28 4 54 5 57 1 3 3 10 4 15 1 6 5 21 9 35 4 14
2 38 -3 53 -22 58 -27 57 309 57 267 0 311 2 324 16 23 23 23 315 0 338 -13
14 -57 16 -324 16 l-308 0 2 24 c2 18 -1 22 -16 18 -14 -3 -18 1 -18 25 0 16
6 35 12 41 9 9 10 15 2 20 -7 4 -14 16 -16 27 -2 11 -10 19 -17 17 -16 -3 3
34 21 41 8 3 6 6 -4 6 -10 1 -18 7 -18 14 0 8 -10 13 -22 13 -15 -1 -27 7 -33
22 -5 12 -15 22 -22 22 -7 0 -13 6 -13 13 -1 7 -6 5 -14 -5 -14 -19 -28 -14
-19 8 3 8 -4 15 -19 18 -39 7 -68 5 -68 -5 0 -5 9 -9 19 -9 10 0 22 -7 25 -16
9 -24 7 -29 -6 -16 -17 17 -41 15 -34 -3 3 -9 0 -15 -10 -15 -8 0 -13 4 -10 9
4 5 -3 7 -14 4 -26 -7 -37 -43 -16 -55 22 -12 20 -38 -3 -38 -15 0 -18 -5 -13
-22 3 -14 2 -19 -6 -14 -7 4 -12 2 -12 -3 0 -6 5 -11 10 -11 6 0 10 -5 10 -11
0 -5 -4 -8 -9 -4 -17 10 -34 -34 -20 -51 9 -11 9 -14 -1 -14 -8 0 -11 -9 -8
-25 l5 -25 -254 0 c-251 0 -254 0 -243 20 7 14 7 20 0 20 -5 0 -10 6 -10 14 0
8 -8 17 -17 20 -12 5 -14 9 -5 18 14 14 16 48 3 48 -5 0 -17 13 -25 30 -9 16
-23 43 -32 60 -8 16 -12 35 -9 41 4 6 -2 13 -14 16 -23 6 -27 18 -9 29 8 5 6
11 -7 20 -12 9 -16 20 -11 38 5 19 1 29 -14 38 -11 7 -20 19 -20 26 0 7 -4 11
-9 7 -6 -3 -10 3 -11 12 -1 10 -4 55 -6 100 l-6 83 31 0 c37 0 37 3 10 41 -28
40 -15 37 21 -5 36 -41 70 -53 70 -25 0 22 46 37 62 21 10 -10 24 -8 63 9 11
4 33 10 49 11 32 3 61 37 39 45 -7 3 -13 9 -13 13 0 5 13 1 29 -8 34 -19 54
-9 25 12 -26 20 -10 32 20 16 14 -7 32 -10 42 -6 9 3 23 1 30 -5 11 -9 14 -7
14 10 l0 22 29 -20 c16 -12 34 -21 40 -21 14 0 14 17 1 25 -5 3 -10 11 -10 16
0 6 7 3 16 -5 21 -22 35 -20 41 5 8 28 47 22 51 -8 2 -13 -1 -23 -7 -23 -6 0
-11 -6 -11 -14 0 -8 -6 -17 -12 -19 -7 -3 -3 -6 10 -6 14 -1 21 -5 17 -12 -4
-6 3 -5 14 3 20 12 24 10 41 -12 23 -30 35 -21 25 17 -11 39 -14 83 -6 83 15
-1 71 -62 65 -71 -3 -6 1 -16 11 -22 19 -15 11 -47 -12 -47 -13 0 -13 -3 -3
-15 18 -22 37 -18 56 10 9 14 19 23 23 20 8 -4 9 3 12 49 1 17 6 22 19 19 10
-3 20 -1 23 4 3 5 -2 9 -11 9 -9 -1 -17 4 -17 9 0 6 20 11 45 12 25 2 55 3 66
4 16 1 22 8 22 26 0 40 17 49 57 30 47 -22 48 -22 43 13 -6 37 4 38 31 4 15
-20 21 -22 21 -10 0 9 5 16 10 16 6 0 10 9 10 19 0 10 7 22 16 25 23 9 5 28
-21 22 -15 -4 -28 1 -40 14 -17 19 -17 20 -1 20 10 0 26 -5 38 -11 26 -14 36
-3 19 22 -7 12 -10 23 -7 26 3 3 8 -2 12 -11 8 -20 24 -21 24 -1 0 9 7 18 15
21 8 4 15 13 15 21 0 9 6 13 15 9 9 -3 15 0 15 9 0 8 7 15 15 15 14 0 49 33
51 48 0 4 3 14 6 22 15 38 16 60 2 60 -8 0 -14 5 -14 10 0 12 2 12 32 1 13 -4
35 -11 50 -14 25 -7 26 -6 21 32 l-5 39 35 -8 c20 -4 38 -5 42 -2 7 8 -25 42
-40 42 -7 0 -16 7 -19 16 -4 12 -1 14 13 9 14 -4 21 0 25 13 4 12 16 20 31 20
25 0 26 -4 29 -53 2 -44 18 -27 22 24 5 63 9 71 27 48 13 -18 87 -34 87 -19 0
6 -11 13 -25 16 -15 4 -27 16 -31 32 -9 37 2 40 30 8 13 -16 27 -26 31 -22 4
3 -3 16 -14 27 -38 38 -59 93 -47 124 7 19 15 26 27 22 9 -3 24 2 34 11 9 9
33 18 53 19 20 1 39 3 40 4 2 0 -11 19 -28 41 l-32 40 28 0 c15 0 35 -7 44
-15 14 -13 16 -12 17 5 1 11 -2 20 -8 20 -5 0 -9 5 -9 12 0 9 3 9 12 0 18 -18
31 -14 25 8 -7 26 30 28 49 3 12 -16 12 -13 3 15 -8 24 -8 36 1 47 7 8 10 26
6 40 -4 15 -2 25 4 25 6 0 9 4 6 9 -10 15 23 34 57 33 26 -1 29 1 15 9 -10 6
-18 17 -18 26 0 14 2 14 15 -3 13 -17 14 -18 15 -1 0 10 -7 20 -15 23 -19 8
-19 38 0 58 13 12 15 40 14 145 -2 135 -12 169 -39 136 -10 -12 -9 -16 3 -21
21 -8 10 -34 -14 -34 -11 0 -19 -7 -19 -16 0 -12 -6 -15 -25 -10 -25 6 -32 -2
-16 -19 5 -6 12 -20 15 -32 9 -29 -19 -34 -63 -10 -39 21 -52 15 -26 -13 21
-23 20 -26 -17 -35 -21 -6 -30 -2 -44 19 -9 15 -19 25 -21 22 -7 -7 30 -66 42
-66 5 -1 -1 -7 -14 -14 l-24 -14 29 -16 29 -17 -40 4 c-22 2 -48 7 -59 12 -16
7 -17 6 -7 -13 18 -34 14 -43 -14 -30 -14 6 -25 15 -25 20 0 4 -7 8 -15 8 -8
0 -15 -4 -15 -9 0 -5 -10 -7 -22 -3 -32 8 -15 -13 32 -39 21 -12 42 -29 45
-37 5 -14 4 -14 -42 5 -7 3 -13 0 -13 -6 0 -6 5 -11 10 -11 6 0 10 -9 10 -20
0 -19 -1 -20 -24 -5 -14 9 -29 30 -35 46 -14 40 -22 37 -16 -6 3 -26 0 -38
-11 -42 -8 -3 -13 -11 -10 -18 7 -18 -21 -27 -45 -15 -27 15 -23 0 6 -29 33
-31 35 -63 3 -35 -28 23 -45 46 -46 59 -1 10 -28 23 -49 24 -22 1 -15 -18 17
-49 40 -39 41 -70 1 -37 -9 7 -29 19 -46 26 l-30 13 21 -24 c30 -32 46 -66 35
-72 -11 -7 -71 13 -71 24 0 13 -63 35 -67 23 -2 -6 -13 -9 -23 -6 -25 7 -25
-4 -2 -30 16 -20 16 -20 -1 -14 -10 4 -22 7 -27 7 -5 0 -11 8 -14 18 -9 26
-79 57 -102 43 -13 -7 -14 -10 -5 -11 19 0 104 -50 97 -57 -3 -3 -28 6 -55 21
-56 29 -143 38 -108 11 11 -7 25 -11 33 -8 18 7 64 -23 64 -41 0 -17 -27 -29
-35 -16 -9 15 -25 12 -25 -4 0 -7 12 -22 27 -32 17 -11 23 -19 15 -22 -7 -2
-19 1 -27 8 -18 15 -35 5 -35 -22 0 -15 -4 -18 -17 -13 -10 5 -26 8 -37 9 -10
0 -31 13 -47 28 -29 29 -59 37 -59 15 0 -7 9 -30 20 -52 23 -46 19 -58 -9 -24
-20 23 -26 18 -22 -18 2 -16 -14 -16 -42 -1 -12 6 -32 13 -45 14 -19 2 -21 0
-12 -11 7 -8 9 -18 6 -23 -3 -5 5 -15 18 -22 20 -10 46 -48 46 -65 0 -22 -82
49 -88 77 -2 7 -10 20 -19 28 -10 9 -13 10 -8 2 13 -24 17 -72 5 -72 -6 0 -10
6 -9 12 3 24 -1 38 -10 38 -10 0 -8 -32 4 -69 6 -21 5 -23 -16 -17 -13 3 -35
8 -49 12 l-25 5 27 -23 c28 -24 48 -78 30 -78 -7 0 -8 -10 -2 -30 5 -18 5 -30
-1 -30 -5 0 -12 12 -15 27 -12 49 -46 113 -66 124 -19 10 -19 9 -3 -21 11 -22
13 -36 7 -42 -6 -6 -8 -16 -6 -22 8 -22 -38 -12 -53 11 -9 13 -21 23 -28 23
-7 0 -22 15 -33 34 -16 28 -24 33 -46 29 -22 -5 -28 0 -41 30 -8 20 -24 41
-35 47 -24 13 -27 -2 -5 -20 9 -7 14 -19 11 -27 -6 -16 27 -53 48 -53 7 0 21
-11 29 -24 13 -20 14 -27 3 -41 -8 -11 -18 -15 -26 -10 -10 6 -12 -2 -7 -44 6
-55 -7 -62 -18 -10 -4 19 -16 34 -31 39 -13 5 -24 16 -24 23 0 7 -11 24 -25
37 -21 19 -25 21 -25 7 0 -38 -39 -5 -64 53 -12 27 -15 30 -16 13 0 -12 -6
-23 -12 -26 -10 -3 -8 -9 5 -24 9 -11 17 -29 17 -41 0 -12 5 -32 11 -46 9 -19
8 -29 -3 -45 l-15 -21 -11 24 c-6 13 -13 44 -17 69 -5 29 -16 54 -31 68 -19
18 -24 19 -24 6 0 -9 5 -19 10 -22 6 -3 9 -18 9 -33 l-2 -27 -4 25 c-3 14 -11
29 -19 33 -15 9 -25 10 -21 2 3 -7 -43 -38 -49 -32 -3 2 -8 22 -11 43 -4 23
-16 46 -29 57 -18 13 -22 25 -18 45 4 20 0 33 -16 47 -14 13 -19 14 -16 4 2
-8 7 -27 11 -43 5 -24 3 -27 -10 -22 -9 3 -21 4 -25 1 -12 -8 -1 -35 14 -35
22 0 66 -70 66 -105 0 -26 -15 -16 -27 16 -9 22 -17 30 -28 26 -8 -4 -15 -2
-15 3 0 6 -6 10 -13 10 -7 0 -18 10 -26 21 -11 18 -11 23 1 31 10 7 9 8 -5 4
-13 -4 -19 1 -24 24 -5 30 -18 40 -25 19 -2 -5 -17 -12 -33 -14 -22 -2 -38 4
-59 23 l-29 27 7 -29 c6 -23 4 -27 -8 -23 -17 7 -19 -6 -7 -38 8 -20 -8 -45
-27 -45 -6 0 -15 -12 -20 -27 -7 -18 -11 -22 -11 -10 -1 21 -19 22 -46 2 -17
-14 -20 -13 -32 7 -7 13 -12 17 -13 9 0 -7 -10 -22 -22 -33 -22 -19 -23 -19
-26 -1 -7 41 -14 49 -22 28 -9 -20 -9 -20 -9 1 -1 11 -6 25 -13 32 -9 9 -9 18
0 37 15 33 16 30 -12 48 l-24 16 2 -64 c1 -35 -2 -61 -6 -59 -4 3 -8 9 -8 13
0 5 -7 25 -16 46 -14 35 -16 36 -29 19 -18 -26 -29 -11 -31 41 -1 35 2 46 16
50 10 3 21 12 24 20 3 8 15 15 26 15 18 0 24 -11 23 -47 -1 -7 3 -11 7 -8 4 3
18 -3 29 -13 15 -12 22 -31 25 -65 2 -26 6 -51 11 -55 4 -4 6 7 3 25 -3 25 0
33 19 42 19 9 24 7 33 -10 6 -11 15 -17 21 -14 5 4 12 -1 15 -9 3 -9 12 -16
20 -16 8 0 14 -5 14 -12 0 -6 2 -9 5 -6 4 3 -3 22 -15 42 -22 39 -26 61 -10
51 6 -4 10 10 10 34 0 23 -4 41 -10 41 -5 0 -10 -7 -10 -15 0 -26 -19 -16 -26
13 -3 15 -8 33 -10 40 -2 7 0 21 5 30 5 10 7 29 4 45 -4 22 -9 26 -28 21 -13
-3 -26 -1 -29 5 -12 19 -46 13 -46 -9 0 -19 -13 -25 -52 -22 -11 1 -15 -3 -12
-13 4 -8 1 -15 -5 -15 -8 0 -7 -6 1 -20 11 -17 10 -22 -2 -30 -38 -25 -81 7
-85 62 -3 43 -3 42 -18 29 -8 -6 -17 -8 -20 -4 -11 10 -8 51 3 58 6 3 10 15
10 27 0 16 -3 18 -14 9 -10 -9 -16 -9 -21 -1 -7 11 21 39 38 40 4 0 7 9 7 20
0 11 6 20 14 20 21 0 40 28 28 43 -5 6 -13 26 -17 44 -5 25 -12 32 -33 35 -15
2 -27 8 -27 13 0 19 -16 35 -28 28 -9 -5 -9 -3 0 8 7 8 13 32 15 52 2 31 6 37
24 37 13 0 26 5 29 10 3 6 2 10 -4 10 -6 0 -18 16 -27 35 -15 33 -18 34 -34
20 -17 -15 -40 -20 -40 -8 0 3 15 25 33 49 22 30 37 42 50 38 9 -3 17 -1 17 5
0 6 -8 11 -19 11 -10 0 -24 6 -30 14 -21 25 64 41 111 21 9 -4 22 -4 28 0 5 3
10 -1 10 -9 0 -29 28 -16 32 15 4 26 2 30 -14 26 -23 -6 -42 31 -26 50 5 7 6
18 2 24 -5 9 -2 10 9 6 10 -4 20 0 25 10 6 11 11 12 16 4 10 -16 29 -14 23 3
-8 21 25 30 118 29 49 -1 94 -7 117 -17 61 -26 75 -20 33 14 -20 16 -41 27
-46 24 -13 -8 -60 27 -70 53 -6 16 -17 23 -36 24 -19 1 -22 3 -10 6 11 3 16
10 13 20 -3 8 -6 17 -6 19 0 2 -6 4 -14 4 -7 0 -26 10 -41 22 -15 11 -42 22
-61 23 -19 1 -41 8 -49 15 -8 7 -15 10 -15 6 0 -4 -11 0 -24 9 -21 14 -26 14
-52 0 -26 -13 -29 -13 -32 0 -4 17 -22 21 -22 5 0 -16 -19 -11 -37 10 -21 24
-33 26 -33 5 0 -18 1 -18 -45 1 -34 14 -38 14 -50 -3 -12 -15 -16 -16 -39 -4
-14 8 -35 23 -47 34 -15 14 -29 18 -50 13 -22 -4 -32 -1 -41 14 -7 11 -18 20
-25 20 -7 0 -13 3 -14 8 0 4 -2 21 -3 39 -4 33 16 47 57 43 9 -1 20 5 23 13 7
18 40 28 114 33 30 2 64 8 75 13 68 31 94 41 104 41 6 0 11 4 11 10 0 5 7 7
15 4 18 -7 88 24 80 35 -2 5 5 11 16 14 13 3 18 10 14 17 -4 6 2 20 14 31 12
11 21 24 21 30 0 6 4 8 8 5 4 -2 8 4 8 14 0 14 -4 16 -17 9 -12 -6 -24 -1 -45
19 -26 25 -32 26 -54 15 -29 -15 -77 -8 -102 14 -9 8 -21 12 -27 8 -7 -3 -8 0
-5 9 6 15 19 15 92 0 12 -2 22 0 22 5 0 6 7 8 14 5 8 -3 25 4 37 15 27 25 39
27 39 6 0 -27 20 -15 27 16 4 23 10 28 22 23 42 -17 54 -17 48 -1 -4 11 -1 17
8 17 8 0 15 5 15 10 0 6 7 10 15 10 8 0 15 7 15 15 0 10 10 15 34 15 19 0 36
5 38 10 2 6 16 13 33 16 16 3 35 10 42 16 8 6 32 8 61 4 26 -4 54 -6 62 -6 49
4 87 0 113 -11 23 -10 32 -10 35 -1 2 8 11 6 29 -6 18 -11 28 -13 30 -5 2 6
14 9 26 6 22 -5 22 -5 2 10 -18 14 -18 16 -3 22 9 4 22 3 29 -1 7 -4 26 -9 43
-11 17 -1 43 -12 58 -23 15 -11 29 -16 33 -11 5 9 50 -2 87 -20 10 -5 35 -9
55 -8 l38 1 -32 8 c-18 4 -41 17 -50 28 -10 11 -40 28 -68 38 -27 9 -54 21
-60 25 -15 11 -85 29 -133 35 -38 5 -43 3 -40 -12 4 -26 -29 -30 -37 -5 -8 25
-35 28 -35 4 0 -16 -9 -18 -72 -15 -40 2 -76 9 -80 15 -5 8 -18 7 -46 -2 -22
-8 -45 -10 -51 -7 -6 4 -27 2 -45 -5 -27 -10 -38 -10 -49 0 -10 8 -17 8 -21 2
-11 -18 -133 -11 -158 8 l-21 18 21 21 c26 26 28 47 6 56 -22 8 -26 8 -19 -4
3 -6 -4 -14 -17 -19 -15 -5 -25 -5 -30 2 -4 6 -10 8 -14 5 -3 -4 4 -21 16 -38
12 -17 19 -37 16 -45 -3 -8 -2 -14 2 -12 4 1 8 -2 10 -8 2 -5 -10 -13 -25 -16
-15 -4 -55 -14 -88 -23 -75 -20 -124 -21 -131 -1 -5 12 -9 13 -21 4 -10 -9
-17 -9 -25 -1 -6 6 -17 8 -24 5 -8 -3 -14 1 -14 8 0 8 -11 27 -25 43 -14 17
-23 37 -20 45 3 8 0 18 -7 23 -41 25 -57 -14 -29 -71 10 -23 15 -41 11 -41
-11 0 -80 103 -80 119 0 6 -5 11 -10 11 -6 0 -30 19 -54 43 -40 38 -100 67
-140 67 -8 0 -18 9 -21 20 -4 11 -10 18 -15 15 -13 -8 -23 13 -13 28 4 6 8 25
8 42 1 23 6 31 25 35 14 3 25 12 26 20 0 8 6 28 13 44 11 27 14 28 58 22 25
-3 56 -6 68 -6 25 0 45 -35 45 -80 0 -54 15 -76 54 -78 20 -2 36 1 36 5 0 4
12 13 26 20 22 10 26 9 34 -10 8 -21 9 -21 11 -2 1 11 2 28 1 38 -1 9 5 17 14
17 8 0 12 4 9 10 -3 5 1 20 10 33 8 13 14 26 13 28 -2 2 1 1 7 -4 6 -4 14 6
21 25 12 36 27 40 32 8 3 -18 5 -19 19 -4 12 12 13 20 5 39 -13 29 8 41 40 24
20 -11 21 -10 15 35 -5 37 -4 46 8 46 12 0 14 7 9 28 -8 33 -34 65 -34 42 -1
-22 -30 19 -30 42 0 12 -7 18 -23 18 -16 0 -26 9 -34 29 -8 23 -15 28 -36 24
-26 -5 -47 14 -29 26 7 4 13 18 14 31 2 18 -1 24 -13 22 -10 -1 -23 10 -32 30
-18 37 -14 48 15 48 l21 0 -20 23 c-12 12 -23 31 -25 42 -5 29 -36 30 -59 3
-12 -12 -26 -24 -32 -24 -7 -1 -18 -2 -24 -3 -7 0 -13 -6 -13 -11 0 -6 -10
-24 -21 -40 -21 -28 -23 -28 -44 -12 -24 18 -23 31 7 74 10 15 15 29 10 32 -5
3 -7 18 -4 34 2 18 -3 40 -13 56 -10 14 -15 32 -12 40 8 21 -49 73 -113 104
-30 14 -57 26 -60 26 -3 1 -21 11 -41 24 -36 22 -81 25 -109 7 -11 -7 -9 -10
6 -16 18 -7 18 -8 -2 -8 -27 -1 -36 9 -23 26 6 7 9 14 5 14 -3 1 -9 2 -13 3
-23 5 -53 29 -53 41 0 8 -4 15 -8 15 -22 0 -52 40 -63 83 -14 57 -5 127 22
160 10 14 19 29 19 33 0 4 7 14 15 23 16 17 82 105 103 136 7 11 21 34 32 50
10 17 25 37 32 45 23 26 60 258 44 282 -6 11 -4 34 8 74 9 33 19 74 21 92 1
18 11 49 21 70 10 20 20 60 22 87 2 29 10 55 19 62 8 6 12 16 9 21 -3 6 1 23
9 38 8 16 15 37 15 46 0 9 5 20 10 23 13 8 13 72 0 77 -6 2 -7 14 -1 35 7 25
6 33 -6 37 -14 6 -14 8 1 24 9 10 16 24 16 30 0 7 4 12 9 12 14 0 7 153 -7
158 -8 2 -5 13 8 33 20 27 20 30 4 54 -9 14 -14 28 -10 32 3 3 1 13 -6 20 -9
11 -9 17 3 24 12 7 11 9 -3 9 -23 0 -32 18 -18 35 6 7 7 16 2 19 -5 3 -10 26
-11 52 -1 50 18 84 49 84 9 0 20 4 26 9 11 12 138 -3 214 -25 30 -8 67 -18 83
-21 15 -3 27 -9 27 -13 0 -4 21 -13 48 -20 26 -6 54 -18 63 -26 9 -8 20 -14
25 -13 5 1 18 -1 29 -5 11 -4 34 -13 50 -19 17 -6 46 -23 66 -37 19 -14 72
-36 117 -50 56 -16 84 -30 88 -42 3 -10 9 -18 13 -18 7 0 18 -42 37 -135 5
-25 -16 -136 -25 -131 -3 1 -14 -6 -24 -17 -18 -18 -18 -19 1 -13 26 9 52 -3
45 -20 -10 -26 23 -14 38 14 16 32 48 61 67 62 8 0 11 -6 8 -12 -3 -7 -9 -21
-12 -30 -4 -10 -10 -19 -15 -19 -5 -1 -15 -2 -21 -3 -11 -1 -13 -34 -3 -45 2
-2 18 1 34 7 19 7 31 7 31 1 0 -5 10 -9 23 -9 26 -1 57 -22 57 -40 0 -7 -7
-10 -15 -7 -15 6 -49 -49 -39 -64 3 -5 -1 -9 -10 -9 -8 0 -17 -6 -20 -12 -3
-7 -3 -3 0 9 4 18 1 20 -15 16 -11 -3 -23 -14 -27 -25 -3 -10 -17 -23 -31 -29
-21 -8 -23 -12 -13 -24 14 -17 35 -21 25 -5 -3 6 1 17 10 26 14 15 18 15 40 0
14 -9 25 -21 25 -26 0 -5 6 -7 14 -4 8 3 23 -4 32 -15 13 -15 20 -17 26 -9 5
9 10 4 17 -12 7 -17 10 -20 10 -8 1 14 5 16 26 8 17 -7 25 -6 25 1 0 8 4 8 13
0 8 -6 22 -12 33 -14 10 -1 25 -6 32 -10 7 -5 12 -3 12 4 0 7 8 6 25 -5 27
-18 49 -21 40 -6 -3 6 -1 10 4 10 6 0 11 -4 11 -10 0 -5 7 -7 15 -4 8 4 12 10
9 15 -3 5 3 9 12 9 16 0 16 1 -1 20 -18 20 -35 22 -47 5 -4 -5 -10 -6 -13 -3
-4 4 -1 13 6 21 15 16 58 10 66 -9 2 -7 10 -11 17 -8 7 3 24 0 39 -5 18 -7 28
-7 33 0 3 6 15 9 25 6 10 -3 21 -1 24 3 3 5 19 5 35 0 18 -5 30 -5 30 1 0 5
-7 9 -15 9 -8 0 -19 9 -25 19 -13 25 -13 31 0 31 6 0 10 -7 10 -15 0 -8 4 -15
9 -15 5 0 17 -3 25 -6 12 -5 15 -2 10 10 -3 9 -1 16 6 16 6 0 19 7 28 17 16
15 15 16 -10 11 -38 -7 -53 4 -39 31 10 18 9 21 -7 21 -11 0 -25 7 -33 16 -10
13 -10 17 2 25 18 11 26 11 34 -1 3 -5 1 -10 -5 -10 -6 0 -8 -4 -5 -10 6 -9
122 45 136 63 3 5 4 19 1 33 -5 25 7 31 25 13 8 -8 17 -5 32 10 18 18 25 20
44 9 12 -7 30 -13 41 -15 16 -3 17 -1 6 12 -7 8 -16 12 -21 9 -5 -3 -9 2 -9
10 0 21 18 30 34 17 8 -7 18 -11 22 -10 5 1 11 1 14 0 18 -6 96 -9 104 -3 15
9 89 2 101 -9 15 -15 38 -11 31 6 -6 17 4 18 59 5 33 -8 42 -6 52 7 7 9 10 21
6 27 -3 6 5 1 18 -10 26 -23 63 -44 76 -44 4 0 0 6 -9 13 -22 17 -8 40 26 40
19 0 26 5 26 19 0 10 4 17 8 14 4 -2 14 -1 22 5 10 6 11 9 3 9 -21 0 -15 20
10 30 12 5 16 9 10 9 -19 1 -44 56 -32 68 8 8 7 13 0 17 -15 10 -33 -3 -25
-16 4 -7 2 -8 -5 -4 -9 6 -9 11 0 22 9 11 9 18 -3 32 -13 15 -13 19 3 33 12
12 20 14 28 6 8 -8 11 -8 11 0 0 6 8 9 18 6 10 -2 24 3 31 11 8 9 26 16 40 16
15 0 63 9 107 21 103 27 272 41 487 40 l77 0 0 814 0 815 -2697 -1 c-1484 0
-2704 -3 -2712 -6z m1261 -3903 c15 0 28 -5 28 -10 0 -6 10 -8 24 -4 13 3 27
1 30 -5 4 -6 20 -11 36 -11 16 0 31 -4 35 -10 3 -5 12 -7 20 -4 27 11 51 -77
26 -96 -3 -3 -15 -22 -26 -42 -10 -20 -23 -35 -27 -32 -4 3 -8 0 -8 -7 0 -21
-31 -48 -48 -42 -11 5 -14 2 -9 -10 4 -11 -1 -25 -11 -35 -10 -10 -25 -29 -34
-41 -21 -30 -36 -20 -44 30 -6 33 -10 39 -33 40 -25 1 -25 2 4 8 22 5 26 9 16
15 -11 7 -11 10 0 17 7 4 10 11 7 15 -12 11 -52 11 -67 0 -20 -15 -53 29 -45
60 4 13 1 31 -5 38 -10 12 -8 13 8 9 23 -6 27 7 9 25 -10 10 -10 15 2 22 11 7
12 14 2 34 -8 19 -8 27 3 36 20 16 28 -4 20 -47 -6 -34 -5 -35 10 -19 9 9 14
23 11 32 -3 8 1 17 10 21 9 3 13 12 9 22 -5 13 -4 14 6 4 7 -7 26 -13 41 -13z
m1968 -4495 c0 -9 6 -18 14 -21 8 -3 17 -16 20 -30 5 -20 11 -23 31 -18 19 5
25 2 25 -11 0 -14 -3 -15 -15 -5 -12 10 -15 10 -15 -4 0 -18 50 -19 51 -1 0 5
5 -1 11 -15 6 -14 10 -31 9 -37 -1 -7 3 -13 9 -13 5 0 10 -5 10 -11 0 -7 11
-22 25 -35 14 -13 25 -28 25 -34 0 -5 7 -10 15 -10 8 0 15 -4 15 -8 0 -5 11
-14 23 -21 13 -7 30 -28 37 -47 14 -35 30 -45 30 -19 0 22 38 18 50 -5 8 -15
8 -20 -1 -20 -7 0 -9 -3 -6 -6 4 -4 12 -2 20 4 8 7 18 7 27 2 8 -5 22 -7 32
-4 9 2 19 0 23 -6 12 -19 26 -11 15 10 -6 11 -17 20 -25 20 -8 0 -15 5 -15 10
0 17 30 11 52 -10 12 -11 26 -20 31 -20 6 0 0 9 -12 20 -23 19 -23 19 121 19
143 0 143 0 144 -24 2 -25 -35 -43 -47 -23 -5 8 -12 6 -23 -5 -20 -20 -20 -27
0 -27 8 0 12 -4 9 -10 -10 -15 -35 -12 -35 5 0 8 -5 15 -11 15 -14 0 -2 -72
13 -81 5 -3 0 -9 -11 -12 -16 -4 -21 0 -21 14 0 21 -16 24 -55 9 -20 -8 -27
-7 -30 5 -3 8 -7 22 -10 31 -3 8 -9 12 -15 9 -7 -4 -7 -13 0 -26 15 -26 -10
-26 -33 1 -9 11 -25 20 -34 19 -15 0 -14 -2 3 -9 24 -10 38 -36 23 -45 -5 -4
-7 -11 -4 -16 4 -5 0 -9 -9 -9 -8 0 -17 6 -19 13 -3 7 -6 5 -6 -5 -1 -10 4
-18 11 -18 9 0 9 -3 0 -12 -8 -8 -15 -8 -24 0 -11 8 -17 6 -26 -8 -9 -16 -17
-17 -43 -10 -18 5 -58 10 -88 11 -57 2 -146 24 -214 52 -41 18 -72 71 -60 103
4 11 3 15 -4 11 -7 -5 -9 0 -6 13 3 11 1 20 -5 20 -6 0 -18 26 -28 58 -10 31
-24 68 -31 82 -7 14 -9 26 -4 28 5 2 6 12 4 23 -5 16 -8 18 -14 7 -7 -10 -9
-9 -9 3 0 9 -7 19 -15 23 -8 3 -15 11 -15 18 0 9 3 9 11 1 12 -12 49 -6 49 9
0 6 -6 8 -14 5 -8 -3 -17 1 -20 9 -3 8 1 14 10 14 11 0 13 6 9 20 -6 19 2 25
33 21 6 -1 12 5 12 14 0 8 5 15 10 15 6 0 10 -7 10 -15z m602 -62 c23 -20 24
-76 2 -94 -9 -8 -40 -16 -68 -19 -47 -5 -51 -7 -54 -33 -3 -20 -8 -27 -20 -25
-13 3 -17 14 -17 53 l0 50 55 3 c74 4 86 8 70 27 -8 10 -31 15 -71 15 -52 0
-59 2 -59 20 0 18 7 20 72 20 52 0 76 -4 90 -17z"/>
<path d="M3545 5623 c-69 -16 -265 -89 -292 -110 -34 -25 -45 -63 -17 -63 39
0 110 26 130 47 31 34 79 22 138 -33 39 -37 82 -48 208 -50 107 -2 130 0 146
14 20 18 16 56 -9 87 -52 63 -80 86 -118 100 -41 14 -140 19 -186 8z"/>
</g>
</svg>
