<?xml version="1.0" standalone="no"?>
<!DOCTYPE svg PUBLIC "-//W3C//DTD SVG 20010904//EN"
 "http://www.w3.org/TR/2001/REC-SVG-20010904/DTD/svg10.dtd">
<svg version="1.0" xmlns="http://www.w3.org/2000/svg"
 width="624.000000pt" height="904.000000pt" viewBox="0 0 624.000000 904.000000"
 preserveAspectRatio="xMidYMid meet">
<metadata>
Created by potrace 1.16, written by Peter Selinger 2001-2019
</metadata>
<g transform="translate(0.000000,904.000000) scale(0.100000,-0.100000)"
fill="#122134"  stroke="none">
<path d="M770 9027 c-14 -7 -59 -38 -100 -68 -41 -30 -86 -62 -100 -71 -123
-77 -362 -298 -497 -459 l-73 -86 0 -719 0 -719 38 -18 c20 -9 63 -32 95 -51
32 -18 90 -46 130 -61 40 -15 83 -33 97 -40 14 -7 43 -18 65 -24 22 -7 49 -16
60 -21 11 -4 101 -34 200 -65 99 -31 230 -74 290 -95 61 -21 133 -45 162 -55
69 -22 112 -58 181 -152 32 -43 78 -105 103 -137 150 -200 139 -164 139 -459
1 -328 16 -743 30 -832 6 -38 17 -115 25 -170 8 -55 24 -149 36 -210 11 -60
29 -157 39 -215 23 -135 52 -265 79 -360 12 -41 28 -102 37 -135 8 -33 19 -73
24 -90 6 -16 29 -91 51 -165 39 -125 63 -179 187 -410 25 -47 79 -150 119
-230 41 -80 106 -197 144 -261 59 -98 68 -119 61 -140 -6 -13 -61 -78 -123
-143 -107 -112 -189 -210 -189 -227 0 -4 -6 -14 -13 -21 -15 -15 -94 -129
-119 -173 -36 -61 -148 -293 -148 -306 0 -7 -6 -20 -13 -28 -17 -21 -48 -103
-83 -216 -15 -49 -31 -94 -35 -99 -5 -6 -9 -17 -9 -25 0 -17 -49 -180 -87
-286 -14 -38 -31 -90 -40 -115 -41 -122 -194 -450 -279 -595 -12 -22 -37 -75
-54 -119 -17 -43 -40 -93 -51 -112 -10 -19 -19 -37 -19 -39 0 -3 28 -5 63 -5
59 0 63 2 81 33 11 17 19 36 18 40 -2 5 15 43 37 85 21 42 60 120 86 172 26
52 56 103 68 114 12 10 21 25 19 34 -4 18 23 74 60 123 15 19 30 47 33 61 4
15 16 34 26 44 11 10 28 38 39 62 11 24 51 90 88 145 38 56 81 125 95 152 22
43 63 111 109 179 12 17 43 59 78 105 8 11 28 23 44 27 28 7 29 6 22 -22 -4
-15 -23 -54 -42 -87 -19 -32 -34 -62 -34 -67 0 -5 -8 -14 -19 -19 -10 -6 -21
-23 -24 -38 -3 -15 -22 -46 -42 -68 -46 -52 -46 -51 -83 -115 -18 -30 -37 -62
-42 -70 -4 -8 -14 -29 -20 -47 -7 -18 -32 -67 -56 -109 -24 -43 -44 -83 -44
-90 0 -7 -9 -18 -20 -24 -11 -6 -20 -19 -20 -29 0 -10 -14 -49 -30 -85 -22
-49 -35 -66 -45 -62 -8 3 -22 9 -31 12 -12 5 -11 -1 6 -31 19 -34 20 -39 5
-54 -8 -10 -15 -24 -15 -32 0 -12 -34 -85 -46 -98 -2 -2 -10 2 -19 9 -9 7 -19
9 -23 5 -4 -4 0 -12 9 -18 15 -9 14 -15 -3 -70 -10 -32 -31 -83 -48 -113 l-29
-54 34 0 c28 0 35 4 35 20 0 11 7 20 15 20 11 0 15 11 15 39 0 22 5 43 10 46
6 4 8 10 5 15 -3 5 1 14 8 22 8 7 17 25 20 40 4 15 13 33 20 40 7 7 13 23 14
35 1 12 11 31 22 42 12 12 18 27 15 36 -4 10 8 29 35 54 22 21 41 45 41 53 0
18 28 75 41 83 5 4 9 17 9 31 0 15 6 24 15 24 9 0 15 9 15 25 0 14 5 25 10 25
6 0 9 6 8 13 -2 6 2 11 8 10 6 -1 9 10 6 26 -3 20 6 39 37 76 23 27 41 55 41
62 0 6 12 25 26 42 14 17 23 34 20 39 -3 5 6 20 20 35 29 31 30 37 7 37 -14 0
-14 3 5 15 16 12 26 13 42 5 23 -12 26 -26 7 -37 -8 -4 -16 -17 -20 -28 -13
-46 -44 -124 -54 -137 -6 -7 -19 -36 -28 -65 -9 -28 -25 -59 -36 -69 -10 -9
-19 -25 -19 -34 0 -16 -79 -177 -128 -263 -12 -21 -22 -48 -22 -60 0 -12 -11
-39 -25 -59 -14 -20 -25 -44 -25 -52 0 -8 -5 -18 -10 -21 -6 -3 -19 -27 -30
-53 -22 -50 -34 -74 -58 -109 l-14 -23 111 0 c107 0 123 4 101 26 -14 14 20
96 47 115 10 8 20 25 20 39 1 13 9 29 17 35 8 6 14 20 13 30 -1 11 7 24 18 29
22 10 45 49 45 76 0 10 9 27 20 40 11 13 20 31 20 40 0 10 7 23 15 30 9 7 14
19 11 26 -6 17 31 54 54 54 16 0 19 5 13 30 -5 25 0 36 28 63 21 19 34 42 34
57 0 20 6 26 30 30 27 5 30 8 27 41 -2 26 1 38 12 42 9 4 16 13 16 22 0 8 5
15 10 15 6 0 16 11 22 25 6 14 17 25 23 25 8 0 10 10 7 26 -3 18 0 30 12 36 9
5 16 16 16 24 0 20 56 101 80 116 10 6 16 17 13 23 -2 7 7 29 21 50 14 21 26
44 26 51 0 7 9 18 20 24 11 6 18 15 15 21 -10 15 5 10 35 -11 16 -11 36 -39
45 -63 20 -53 18 -58 -79 -231 -87 -154 -69 -120 -225 -432 -68 -137 -152
-311 -187 -386 l-62 -138 33 0 c28 0 32 3 28 19 -3 12 6 31 26 51 17 18 28 36
25 41 -5 9 12 44 34 67 6 7 12 20 12 28 0 8 4 14 10 14 12 0 50 73 50 96 0 10
5 14 15 10 18 -6 45 30 45 61 0 14 6 23 15 23 8 0 15 7 15 16 0 12 6 15 26 10
15 -4 23 -3 20 3 -3 5 -1 11 6 13 8 3 11 22 9 56 -2 48 -1 52 19 52 13 0 24 8
27 20 6 21 43 28 43 8 0 -6 2 -9 5 -7 2 3 0 22 -6 43 -9 31 -8 41 5 55 9 10
16 22 16 28 0 22 32 73 46 73 17 0 60 68 56 87 -2 7 2 13 8 13 5 0 10 5 10 11
0 7 12 22 26 35 14 13 22 29 19 34 -3 6 1 10 9 10 9 0 16 5 16 10 0 14 41 70
51 70 4 0 24 -25 44 -56 33 -49 36 -59 26 -81 -8 -18 -17 -24 -31 -20 -13 3
-20 0 -20 -8 0 -8 -8 -16 -18 -19 -9 -3 -37 -33 -61 -66 -28 -38 -51 -60 -63
-60 -16 0 -19 -5 -13 -29 3 -17 2 -32 -4 -36 -6 -3 -11 -19 -11 -36 0 -16 -4
-29 -10 -29 -5 0 -10 -6 -10 -13 0 -7 -9 -23 -20 -35 -11 -11 -16 -23 -11 -26
9 -6 4 -44 -9 -61 -4 -5 -11 -26 -15 -45 -4 -19 -15 -51 -25 -70 -10 -19 -26
-59 -35 -89 -10 -29 -36 -81 -59 -115 -23 -33 -54 -82 -69 -108 l-28 -48 1553
1 c854 1 1543 4 1531 6 -13 2 -20 10 -17 17 3 7 -2 18 -10 25 -17 14 -12 59 9
75 15 11 15 32 2 53 -4 6 -2 24 3 39 6 15 9 32 7 38 -3 6 -1 21 4 34 l8 22
285 0 c245 0 287 2 300 16 13 13 16 43 16 169 0 126 -3 156 -16 169 -13 14
-56 16 -310 16 l-295 0 -15 37 c-12 29 -18 33 -26 22 -7 -10 -8 -1 -4 28 4 25
2 44 -5 48 -6 4 -8 13 -5 21 3 7 1 16 -4 19 -15 9 -12 25 5 25 8 0 15 5 15 11
0 5 5 7 10 4 6 -3 10 -1 10 5 0 7 -12 10 -27 8 -18 -2 -27 2 -25 10 1 7 -9 12
-27 12 -21 0 -32 6 -36 20 -3 11 -13 20 -21 20 -8 0 -14 5 -14 11 0 5 -5 7
-10 4 -6 -3 -13 1 -16 9 -3 9 -12 16 -20 16 -8 0 -14 7 -14 15 0 8 -5 15 -11
15 -5 0 -7 -4 -4 -10 6 -10 -6 -14 -39 -10 -16 1 -18 -3 -13 -29 6 -27 3 -32
-18 -37 -29 -7 -38 -29 -24 -56 8 -15 7 -22 -6 -32 -9 -6 -17 -23 -19 -36 -1
-14 -8 -35 -14 -47 -7 -12 -10 -28 -7 -35 3 -8 -4 -27 -16 -41 l-21 -27 -221
2 c-181 2 -221 6 -219 17 1 7 -3 19 -9 27 -7 8 -13 30 -15 50 -1 20 -10 44
-18 53 -9 10 -16 25 -16 34 0 9 -9 26 -20 37 -16 16 -19 28 -14 63 6 38 2 51
-32 105 -22 34 -45 62 -53 62 -8 0 -11 7 -8 20 3 11 -1 27 -9 34 -9 10 -14 36
-14 76 0 57 2 61 20 55 33 -10 42 4 20 32 -11 14 -20 31 -20 37 0 6 10 -4 23
-21 12 -18 35 -37 51 -43 37 -13 35 -13 29 9 -3 14 2 20 22 25 15 4 32 3 38
-2 21 -15 65 -13 71 4 5 12 14 15 36 10 26 -5 32 -1 45 23 11 22 20 28 35 24
23 -6 28 12 5 21 -8 3 -15 10 -15 16 0 7 7 7 21 -1 12 -6 34 -8 50 -5 17 3 31
1 36 -7 5 -8 9 -4 13 11 l5 23 22 -20 c35 -33 71 -25 41 9 -11 12 -10 12 4 1
21 -16 48 -8 48 14 0 11 7 15 23 13 16 -2 23 -11 25 -33 4 -28 67 -103 78 -92
3 3 1 28 -4 56 -5 28 -6 53 -2 56 10 6 71 -60 63 -69 -5 -4 1 -14 12 -22 20
-15 20 -15 -2 -34 -19 -15 -20 -20 -8 -30 19 -16 52 -4 58 21 3 12 10 18 15
15 10 -6 22 39 22 81 0 22 3 24 24 19 37 -9 58 2 45 25 -13 25 -4 24 29 -2
l27 -21 8 32 c10 39 27 46 66 26 40 -21 41 -21 41 14 0 28 2 29 20 18 11 -7
20 -18 20 -25 0 -9 6 -7 18 4 11 10 17 22 14 26 -2 5 4 17 13 27 10 11 12 20
6 24 -11 7 -4 33 13 53 30 35 36 43 36 54 0 8 4 8 15 -1 12 -10 15 -10 15 4 0
20 9 20 34 1 29 -22 42 -18 21 5 -16 18 -17 22 -3 38 9 9 20 38 26 64 8 39 7
48 -6 53 -8 3 -13 8 -10 10 3 3 24 -2 48 -10 60 -21 63 -20 56 21 l-7 36 35
-3 c48 -5 53 5 17 32 -32 24 -42 42 -17 33 8 -3 17 3 20 14 5 13 15 19 31 18
24 -1 27 -7 29 -51 1 -25 20 -31 22 -7 0 9 1 34 2 55 2 37 2 37 26 21 31 -19
86 -29 86 -15 0 6 -6 11 -13 11 -19 0 -47 33 -47 53 0 23 7 21 34 -8 29 -32
38 -32 26 -1 -7 20 -5 27 11 38 18 11 19 18 12 48 -6 21 -16 36 -27 38 -28 6
-40 -12 -25 -39 11 -21 14 -21 17 -6 2 9 7 15 12 12 9 -6 -10 -65 -22 -65 -4
0 -16 17 -26 38 -24 49 -11 95 25 86 16 -4 25 -1 29 10 4 11 18 16 43 16 51 0
54 7 26 45 -31 40 -31 45 -1 45 14 0 32 -10 40 -22 l16 -22 0 22 c0 24 19 29
38 10 6 -6 15 -8 19 -5 4 4 -3 14 -15 23 -23 16 -30 44 -10 44 6 0 22 -10 36
-22 l23 -23 -11 29 c-6 16 -7 32 -3 35 4 3 8 13 8 21 0 9 7 14 18 12 26 -4 20
17 -8 30 -14 6 -22 14 -18 17 4 3 13 15 19 26 6 11 23 21 37 23 l27 3 3 -438
c1 -241 2 152 2 872 0 721 -1 1010 -2 643 -3 -656 -3 -667 -23 -673 -23 -7
-25 -16 -9 -32 13 -13 4 -33 -16 -33 -7 0 -16 -7 -19 -16 -4 -10 -12 -14 -22
-10 -24 9 -36 -3 -19 -20 20 -20 19 -54 -1 -54 -9 0 -29 8 -45 17 -35 21 -46
13 -24 -20 15 -24 15 -25 -10 -30 -20 -3 -33 2 -51 22 -23 24 -24 25 -24 5 0
-12 9 -29 20 -39 18 -17 19 -19 3 -30 -15 -11 -14 -14 13 -29 l29 -17 -40 4
c-22 2 -48 7 -58 12 -15 6 -16 4 -7 -20 9 -25 8 -26 -12 -19 -13 4 -26 11 -29
15 -3 5 -20 6 -38 3 -30 -6 -31 -8 -15 -25 9 -11 22 -19 29 -19 13 0 45 -32
45 -45 0 -5 -5 -4 -12 3 -7 7 -20 12 -30 12 -17 0 -17 -1 -2 -25 18 -27 13
-31 -17 -15 -10 6 -19 19 -19 29 0 10 -7 25 -17 32 -15 13 -16 11 -10 -23 4
-29 2 -38 -9 -38 -8 0 -14 -9 -14 -19 0 -26 -15 -34 -40 -21 -28 15 -25 1 7
-32 14 -15 24 -31 20 -35 -9 -9 -46 26 -63 59 -11 21 -22 28 -44 28 -20 0 -30
-5 -30 -15 0 -8 4 -15 10 -15 12 0 60 -48 60 -61 0 -5 -20 2 -43 16 -54 31
-67 32 -40 3 30 -33 45 -66 33 -73 -8 -5 -27 3 -94 42 -12 8 -34 10 -51 7 -38
-8 -40 -10 -25 -29 10 -12 10 -15 -3 -15 -9 0 -21 8 -26 18 -14 25 -77 56 -98
48 -15 -6 -9 -12 29 -34 62 -35 62 -50 1 -17 -49 26 -139 37 -116 14 6 -6 26
-13 44 -15 35 -4 59 -20 59 -39 0 -16 -27 -27 -35 -15 -4 6 -10 10 -16 10 -17
0 -9 -21 19 -46 21 -20 23 -24 7 -19 -37 13 -50 10 -53 -11 -3 -20 -6 -21 -40
-11 -20 6 -49 22 -64 35 -16 14 -33 22 -42 19 -20 -8 -21 -27 -1 -27 16 0 98
-70 91 -77 -6 -6 -59 28 -69 44 -4 7 -13 13 -18 13 -6 0 -3 -10 5 -22 22 -31
20 -45 -3 -24 -22 20 -43 13 -34 -11 7 -17 9 -17 -65 6 -31 9 -33 9 -27 -12 4
-12 15 -29 24 -37 17 -15 41 -52 41 -64 0 -16 -25 -2 -58 32 -29 30 -36 34
-40 20 -2 -10 -9 -18 -17 -18 -9 0 -11 -7 -8 -21 5 -19 3 -21 -18 -16 -79 21
-77 22 -45 -5 25 -21 29 -32 31 -81 2 -67 -13 -64 -33 5 -14 47 -47 97 -57 86
-4 -3 -2 -15 4 -26 6 -12 7 -30 1 -48 -4 -16 -9 -25 -9 -20 -1 5 -7 4 -14 -2
-10 -9 -17 -4 -31 18 -9 17 -23 30 -29 30 -7 0 -21 14 -31 31 -14 23 -24 30
-44 27 -22 -2 -30 3 -44 31 -9 19 -22 39 -27 44 -16 16 -26 0 -11 -18 7 -9 10
-18 6 -22 -8 -9 34 -53 50 -53 15 0 34 -31 34 -55 0 -9 -10 -19 -21 -22 -18
-5 -21 -11 -16 -44 6 -48 0 -49 -19 -4 -8 19 -21 35 -28 35 -8 0 -17 8 -20 18
-4 11 -18 29 -31 42 -21 20 -25 21 -25 7 0 -38 -39 -5 -64 53 -12 28 -15 31
-16 13 0 -13 -5 -23 -11 -23 -7 0 -5 -10 5 -25 9 -13 16 -33 16 -44 0 -11 5
-31 11 -45 9 -19 8 -29 -4 -46 -15 -21 -15 -21 -25 12 -6 18 -14 49 -17 70 -4
20 -18 47 -32 60 l-26 23 7 -25 c4 -14 10 -36 12 -50 4 -21 3 -20 -10 6 -16
35 -36 53 -36 32 0 -7 -9 -19 -20 -26 -22 -14 -23 -13 -34 40 -4 15 -17 38
-30 51 -16 17 -22 32 -19 49 3 15 -2 29 -13 39 -16 13 -17 11 -11 -24 5 -31 3
-38 -8 -33 -27 10 -28 -17 -1 -37 26 -18 56 -74 56 -103 0 -24 -15 -15 -27 17
-7 16 -18 29 -25 28 -7 -1 -18 -1 -25 0 -15 1 -63 82 -63 107 -1 18 -1 18 -14
1 -20 -26 -65 -21 -99 11 l-29 27 7 -27 c6 -22 4 -28 -9 -28 -17 0 -18 -5 -7
-35 8 -20 -8 -45 -28 -45 -5 0 -13 -10 -16 -21 -6 -17 -9 -19 -16 -8 -7 12
-13 11 -37 -3 -28 -17 -29 -17 -40 5 -6 12 -11 16 -11 8 -1 -7 -11 -22 -23
-33 -22 -19 -23 -19 -26 -1 -7 41 -14 49 -22 28 -9 -20 -9 -20 -9 1 -1 11 -6
25 -13 32 -9 9 -8 18 2 38 13 24 13 28 -10 46 -23 19 -24 19 -31 1 -4 -11 -4
-38 1 -61 4 -23 5 -42 3 -42 -2 0 -13 20 -24 45 -18 42 -39 60 -39 34 0 -6 -6
-9 -12 -7 -8 3 -13 23 -14 46 -1 32 3 42 15 42 9 0 22 9 29 20 14 23 41 27 44
5 0 -8 1 -21 2 -27 1 -7 13 -18 29 -25 20 -9 27 -19 27 -39 0 -24 2 -26 34
-20 19 4 36 3 38 -2 1 -4 20 -18 41 -31 l38 -23 -22 38 c-13 24 -17 40 -10 42
14 5 15 82 1 82 -5 0 -10 -7 -10 -15 0 -8 -4 -15 -9 -15 -14 0 -23 36 -21 83
4 75 2 85 -22 85 -13 0 -35 4 -50 7 -24 6 -28 4 -28 -14 0 -21 -13 -26 -54
-21 -13 1 -17 -3 -13 -14 4 -9 2 -16 -4 -16 -6 0 -6 -6 0 -18 12 -22 -3 -42
-30 -42 -24 0 -49 38 -48 70 2 23 2 23 6 2 5 -23 23 -31 23 -9 0 24 -18 40
-45 40 -31 -1 -41 17 -25 46 8 17 15 19 29 11 21 -11 31 -4 31 22 0 16 -3 17
-22 7 -17 -9 -23 -9 -26 0 -3 9 -8 9 -17 1 -9 -7 -15 -8 -19 -1 -4 6 3 15 14
21 12 6 25 22 30 36 5 13 16 24 24 24 18 0 29 29 17 44 -5 6 -12 26 -16 43 -3
18 -11 33 -16 33 -6 0 -7 -4 -4 -10 3 -5 -12 0 -34 12 -37 20 -59 52 -41 63
14 8 18 58 6 70 -7 8 -19 10 -33 4 -25 -9 -30 0 -10 20 10 10 9 14 -5 22 -26
15 -22 31 17 63 33 28 34 30 18 48 -16 18 -16 18 0 12 14 -5 16 -2 10 12 -4
11 -13 24 -20 29 -8 6 -11 18 -8 28 6 14 11 15 28 5 12 -7 42 -14 66 -15 25
-2 50 -8 58 -14 7 -6 20 -9 28 -5 9 3 15 0 15 -9 0 -29 28 -15 32 16 4 27 2
30 -17 25 -17 -4 -24 -1 -28 16 -4 12 -2 27 3 33 6 7 7 15 4 18 -3 3 -3 11 1
17 6 9 10 9 16 -1 7 -12 9 -12 9 0 0 9 8 11 24 7 18 -4 25 -1 29 14 4 16 14
20 49 21 23 1 47 1 52 0 5 -1 30 -3 55 -5 26 -2 56 -8 67 -14 32 -18 86 -32
96 -26 5 3 -11 22 -37 41 -25 20 -45 41 -45 47 0 6 -4 5 -9 -3 -14 -21 -69 4
-77 35 -3 13 -10 24 -15 24 -5 0 -13 11 -18 23 -14 36 -105 77 -163 74 -27 -1
-48 1 -48 5 0 3 -7 14 -16 23 -20 19 -46 3 -37 -23 3 -11 2 -13 -4 -5 -4 6
-22 15 -38 18 -17 4 -40 14 -52 21 -15 10 -23 11 -23 3 0 -7 -15 -9 -42 -6
-24 3 -48 1 -55 -4 -12 -10 -113 28 -113 43 0 4 -7 8 -15 8 -21 0 -19 -27 3
-39 15 -9 15 -10 -5 -11 -15 0 -23 6 -23 16 0 12 -6 15 -25 10 -18 -5 -27 -1
-35 14 -6 11 -8 24 -6 29 3 5 -1 11 -9 15 -20 7 -20 70 0 86 8 7 27 13 42 12
15 0 43 10 62 21 20 11 60 21 90 23 51 2 79 10 148 40 17 8 38 14 47 14 18 0
88 31 97 44 4 5 12 5 18 2 7 -4 11 1 11 12 0 11 6 25 14 31 11 9 16 6 24 -19
6 -16 14 -30 17 -30 3 0 4 4 0 9 -3 5 2 11 12 13 15 3 15 5 -3 22 -12 13 -15
21 -7 23 8 3 9 12 3 29 -5 13 -7 30 -4 37 3 10 -4 12 -29 9 -31 -3 -35 0 -51
33 -15 31 -16 39 -5 46 19 12 29 11 29 -1 0 -22 22 -8 35 23 8 17 14 26 15 20
0 -17 50 -17 50 0 0 8 11 20 25 27 14 7 25 17 25 22 0 4 15 8 34 8 18 0 39 7
46 15 7 8 22 15 34 15 11 0 29 7 40 15 21 16 72 10 97 -11 22 -19 40 -18 32 2
-5 15 0 16 43 9 59 -8 84 -21 84 -40 0 -18 26 -20 34 -2 3 8 8 7 16 -5 13 -21
41 -23 58 -6 9 9 17 7 33 -8 22 -19 22 -19 15 1 -21 52 -20 54 17 52 20 -2 45
-11 57 -22 15 -14 23 -16 28 -8 6 9 17 9 45 -1 20 -7 40 -15 43 -19 11 -10
102 -9 108 2 6 9 -26 21 -58 21 -10 0 -27 11 -37 24 -11 14 -34 28 -51 32 -31
6 -42 11 -90 35 -26 14 -147 49 -167 49 -9 0 -12 -8 -9 -25 6 -30 -8 -33 -17
-4 -4 13 -2 25 5 29 19 12 2 30 -26 30 -14 0 -34 5 -45 11 -22 11 -76 16 -85
6 -7 -7 25 -57 37 -57 5 0 9 7 9 15 0 8 5 15 11 15 5 0 8 -4 4 -9 -3 -6 3 -14
12 -20 16 -9 16 -10 -5 -11 -13 0 -20 -4 -17 -10 7 -11 -56 -14 -92 -4 -25 7
-32 39 -10 47 9 3 9 7 -2 20 -22 28 -32 19 -25 -22 8 -48 6 -49 -128 -56 -79
-4 -103 -3 -122 10 -23 16 -24 15 -19 -4 4 -16 1 -21 -16 -21 -12 0 -33 7 -46
16 l-25 16 20 25 c24 31 25 49 4 57 -22 8 -24 8 -21 -6 1 -9 -9 -12 -30 -12
-39 2 -39 1 -12 -37 11 -16 18 -36 15 -44 -3 -10 1 -15 12 -16 9 0 -17 -12
-58 -25 -86 -28 -181 -36 -188 -16 -3 10 -7 10 -18 1 -10 -8 -18 -8 -26 -1 -7
6 -17 10 -21 11 -15 0 -64 76 -59 90 5 15 -15 31 -38 30 -9 0 -5 -6 10 -15 14
-9 17 -13 7 -10 -26 8 -39 -2 -28 -22 4 -9 11 -30 15 -46 6 -26 5 -28 -8 -17
-9 8 -16 19 -16 25 0 19 -104 126 -123 126 -10 0 -20 6 -23 14 -3 8 -40 31
-82 52 -88 43 -115 69 -100 97 5 10 7 21 4 24 -9 10 27 32 52 33 26 0 29 24 5
40 -16 11 -16 11 -1 6 11 -3 25 4 37 20 17 22 25 24 68 20 26 -3 57 -5 69 -5
23 -1 44 -37 44 -79 1 -75 34 -96 95 -62 l36 20 8 -22 c8 -21 9 -20 16 15 4
20 11 37 16 37 5 0 6 7 3 15 -4 8 -1 15 5 15 7 0 16 10 21 23 l9 22 0 -22 c1
-12 6 -25 11 -28 6 -4 10 5 9 22 -1 56 17 94 27 55 6 -19 8 -20 21 -6 10 9 13
24 9 39 -6 23 -3 25 25 25 31 0 31 1 26 35 -4 24 -1 37 8 43 12 6 13 15 4 45
-10 37 -23 48 -32 25 -2 -7 -9 3 -14 22 -6 24 -16 36 -33 40 -15 3 -27 17 -33
35 -13 39 -12 38 -36 23 -18 -11 -23 -11 -30 1 -6 9 -4 19 5 28 19 20 18 53
-2 53 -20 0 -43 28 -44 53 0 11 8 17 21 17 15 0 19 -5 15 -15 -5 -13 30 -43
39 -33 8 8 -29 68 -42 68 -8 0 -19 14 -25 31 -6 17 -21 34 -36 40 -13 5 -25 8
-26 7 -1 -2 -7 -16 -14 -31 -7 -17 -18 -27 -26 -24 -18 7 -28 -2 -55 -46 -21
-35 -24 -37 -37 -20 -17 23 -17 38 -1 66 20 32 22 136 2 143 -8 4 -15 16 -15
28 0 21 -56 86 -75 86 -4 0 -16 6 -24 13 -9 8 -32 20 -51 28 -19 7 -52 24 -72
38 -21 13 -50 26 -65 27 -15 2 -29 8 -31 14 -2 5 -13 10 -23 10 -11 0 -30 11
-43 25 -13 14 -30 25 -39 25 -8 0 -25 21 -37 46 -30 65 -21 124 29 190 20 27
40 57 44 67 3 9 11 17 16 17 5 0 26 27 46 59 21 33 43 62 51 65 8 3 14 14 14
23 0 10 14 34 31 52 21 23 27 36 19 41 -9 5 -9 13 -1 27 19 37 29 103 21 134
-7 24 -5 31 7 36 14 6 14 8 -2 19 -16 12 -16 15 -3 36 9 13 13 36 11 54 -3 18
1 37 9 45 29 33 40 60 27 75 -6 8 -7 14 -2 14 5 0 10 16 11 36 4 51 28 104 48
104 12 0 15 6 10 23 -4 16 1 26 15 35 16 11 18 16 9 27 -10 12 -9 16 3 21 12
4 15 14 10 36 -4 19 -1 33 7 38 11 7 10 15 -3 43 -19 39 -22 77 -7 77 6 0 10
9 10 21 0 11 5 30 12 42 21 40 25 111 8 133 -8 8 -8 14 1 19 8 6 8 10 -2 16
-7 4 -14 18 -15 31 -1 13 -5 35 -9 50 -3 14 -2 35 4 46 8 15 6 23 -9 37 -11
10 -17 22 -14 27 3 5 1 14 -4 21 -5 7 -10 26 -9 42 0 17 -3 38 -8 48 -18 41
66 77 139 58 25 -6 58 -11 74 -11 39 0 130 -29 164 -52 14 -10 41 -21 60 -24
18 -4 40 -12 48 -19 8 -7 39 -20 69 -29 29 -9 71 -28 92 -41 21 -14 75 -35
119 -47 71 -20 84 -27 103 -57 11 -19 26 -63 33 -98 10 -55 9 -70 -5 -109 -10
-24 -20 -41 -24 -38 -4 4 -7 -2 -7 -14 0 -22 -3 -24 -52 -27 -15 -1 -34 -8
-43 -15 -20 -16 -20 -51 -1 -44 8 3 12 12 9 19 -3 11 5 14 35 12 32 -1 43 -6
51 -24 11 -24 26 -30 36 -13 8 13 55 13 55 -1 0 -12 52 -8 61 4 4 5 28 0 54
-12 41 -18 53 -36 25 -36 -4 0 -16 -11 -27 -24 -19 -23 -20 -23 -37 -5 -18 17
-18 17 -12 -4 6 -16 3 -22 -8 -22 -9 0 -33 -16 -54 -35 -30 -26 -41 -32 -50
-23 -9 9 -12 9 -12 -2 0 -8 15 -25 33 -37 25 -17 41 -21 73 -16 26 3 44 1 48
-6 4 -6 16 -11 26 -11 10 0 20 -5 22 -12 7 -20 110 -28 116 -9 4 11 40 -5 53
-23 4 -4 10 -3 13 3 8 13 46 15 46 2 0 -5 18 -12 40 -15 22 -3 58 -9 79 -12
27 -4 50 -1 72 10 38 19 51 13 39 -19 -8 -22 -7 -24 21 -23 22 1 28 5 24 17
-5 16 33 41 62 41 7 0 13 5 13 11 0 7 -10 9 -25 5 -15 -4 -25 -2 -25 5 0 6 15
10 38 8 54 -3 62 -1 62 16 0 23 15 18 30 -11 8 -14 22 -30 32 -35 10 -5 18
-16 18 -24 0 -28 15 -15 17 15 1 17 -2 30 -8 30 -6 0 -9 10 -7 23 2 16 11 23
31 25 15 2 27 8 27 13 0 6 -5 7 -10 4 -14 -9 -91 5 -85 15 10 16 -68 64 -102
63 -27 -1 -33 3 -33 21 0 15 13 28 43 44 23 12 48 22 55 22 9 0 13 11 12 33
-3 47 -1 51 15 37 11 -10 18 -9 30 4 21 20 49 21 65 1 7 -8 19 -15 27 -15 10
0 13 6 9 15 -3 8 -9 22 -13 31 -5 13 -2 15 17 9 24 -8 85 -15 133 -17 15 0 27
-5 27 -9 0 -5 5 -9 11 -9 5 0 7 5 4 10 -9 15 59 12 74 -2 10 -11 14 -10 22 5
12 21 29 22 29 2 0 -8 5 -15 12 -15 6 0 20 -8 31 -17 17 -16 19 -16 28 -2 5
11 17 15 33 12 13 -3 27 0 30 5 4 6 22 8 41 5 33 -5 35 -4 35 21 0 29 20 35
40 11 7 -8 19 -15 26 -15 17 0 18 22 2 38 -9 9 -8 13 5 17 8 4 18 24 22 46 4
24 12 39 21 39 8 0 14 6 14 13 -1 22 -27 47 -49 47 -11 0 -21 4 -21 10 0 13
41 90 49 91 11 1 35 7 116 30 44 12 112 25 152 29 39 5 80 11 90 13 10 3 38 2
63 -2 25 -3 68 -2 95 4 28 6 75 8 105 5 l55 -5 5 -1555 c5 -1532 5 -1519 8
818 l2 2372 -2722 0 c-2228 0 -2728 -3 -2748 -13z m1390 -3926 c0 -5 16 -8 35
-6 19 2 35 -1 35 -6 0 -5 11 -9 24 -9 13 0 29 -7 36 -15 10 -13 10 -19 -5 -35
-11 -12 -13 -20 -6 -20 14 0 -3 -32 -36 -66 -13 -13 -23 -32 -23 -44 0 -15 -8
-22 -29 -26 -22 -5 -27 -10 -24 -25 3 -10 1 -19 -5 -19 -16 0 -35 29 -29 44 3
7 0 19 -6 25 -8 8 -7 11 6 11 24 0 21 17 -4 23 -17 5 -20 11 -15 31 3 14 2 26
-3 26 -11 0 -21 49 -11 55 5 3 19 6 33 7 22 2 24 5 16 26 -11 29 -11 32 1 32
6 0 10 -4 10 -9z m1017 -1846 c18 13 22 13 33 0 7 -8 17 -12 24 -8 7 4 7 2 -1
-7 -8 -9 -9 -17 -1 -30 8 -13 6 -22 -8 -39 -11 -12 -19 -27 -19 -34 0 -6 -17
-14 -38 -18 -22 -3 -44 -15 -53 -28 -18 -25 -30 -26 -50 -6 -21 21 -29 19 -42
-9 -16 -36 -47 -24 -61 23 -14 49 -14 68 2 74 9 4 8 8 -3 16 -12 8 -8 11 18
11 18 0 41 6 52 13 17 10 22 9 29 -1 7 -11 9 -11 14 2 4 9 18 16 33 16 22 0
25 4 21 21 -5 19 -4 20 12 5 15 -14 20 -14 38 -1z m1485 -2682 c23 -20 24 -76
2 -94 -9 -8 -40 -16 -68 -19 -47 -5 -51 -7 -54 -33 -3 -20 -8 -27 -20 -25 -13
3 -17 14 -17 53 l0 50 55 3 c74 4 86 8 70 27 -8 10 -31 15 -71 15 -52 0 -59 2
-59 20 0 18 7 20 72 20 52 0 76 -4 90 -17z m-528 -79 c3 -8 13 -14 21 -14 9 0
14 -4 10 -10 -3 -5 12 -28 35 -51 28 -29 40 -50 40 -70 0 -18 5 -29 14 -29 7
0 21 -12 31 -26 10 -15 22 -23 31 -20 10 4 14 -2 14 -19 0 -19 5 -25 21 -25
17 0 20 5 16 21 -5 18 -2 20 16 14 20 -7 59 -12 99 -14 12 -1 15 -7 10 -23 -5
-21 -4 -22 11 -9 12 9 17 10 17 2 0 -6 -7 -14 -15 -17 -26 -10 -16 -22 16 -20
23 1 32 -4 34 -16 4 -23 -11 -33 -19 -13 -3 8 -13 15 -21 15 -12 0 -15 -6 -9
-22 4 -13 12 -26 18 -30 6 -4 7 -10 3 -14 -3 -4 -13 -2 -21 5 -11 9 -15 8 -20
-4 -3 -8 -12 -15 -21 -15 -18 0 -20 17 -2 23 6 2 8 8 4 13 -5 5 -15 1 -22 -10
-12 -16 -24 -18 -92 -13 -76 5 -187 35 -229 62 -16 11 -21 24 -22 72 -1 39 -6
62 -17 69 -8 6 -18 26 -21 45 -4 19 -11 41 -15 51 -6 11 -4 18 8 23 11 3 13 9
7 13 -16 11 -54 69 -54 82 0 8 10 9 29 5 17 -3 32 -2 36 4 7 13 50 -13 59 -35z
m684 -203 c30 -26 27 -34 -10 -29 -36 6 -61 -12 -52 -36 3 -9 1 -16 -5 -16 -6
0 -11 5 -11 10 0 6 -4 10 -9 10 -4 0 -3 -15 3 -34 6 -19 15 -32 20 -29 5 3 6
1 3 -4 -4 -6 -16 -13 -27 -16 -15 -4 -20 0 -20 15 0 17 -5 19 -39 13 -36 -6
-39 -4 -45 20 -6 23 -10 26 -36 20 -20 -4 -30 -3 -30 5 0 6 4 8 10 5 5 -3 21
2 36 11 21 14 24 20 13 28 -24 19 -19 32 14 34 17 2 33 5 36 7 2 3 32 5 66 5
46 0 67 -5 83 -19z"/>
<path d="M3511 5614 c-95 -25 -245 -85 -268 -107 -21 -19 -30 -47 -18 -59 12
-11 131 27 147 48 23 28 60 21 114 -22 22 -19 59 -40 81 -48 53 -19 297 -26
314 -9 31 31 -58 159 -136 194 -49 23 -156 24 -234 3z"/>
<path d="M6235 835 c0 -462 1 -650 2 -417 2 233 2 611 0 840 -1 229 -2 39 -2
-423z"/>
</g>
</svg>
