<?xml version="1.0" standalone="no"?>
<!DOCTYPE svg PUBLIC "-//W3C//DTD SVG 20010904//EN"
 "http://www.w3.org/TR/2001/REC-SVG-20010904/DTD/svg10.dtd">
<svg version="1.0" xmlns="http://www.w3.org/2000/svg"
 width="624.000000pt" height="904.000000pt" viewBox="0 0 624.000000 904.000000"
 preserveAspectRatio="xMidYMid meet">
<metadata>
Created by potrace 1.16, written by Peter Selinger 2001-2019
</metadata>
<g transform="translate(0.000000,904.000000) scale(0.100000,-0.100000)"
fill="#a23050" stroke="none">
<path d="M794 9030 c-23 -9 -279 -192 -329 -234 -154 -132 -199 -172 -255
-231 -100 -106 -102 -108 -149 -176 -25 -35 -48 -65 -53 -67 -12 -5 -10 -32 2
-32 6 0 10 3 10 8 0 4 29 38 65 77 36 38 65 74 65 78 0 10 114 125 206 207 81
73 102 90 114 90 6 0 10 7 10 15 0 8 6 15 14 15 8 0 27 14 43 30 15 17 32 30
38 30 5 0 21 12 34 25 13 14 29 25 37 25 8 0 14 4 14 9 0 5 8 11 18 15 9 3 35
19 57 36 22 16 59 38 81 49 53 24 64 41 27 40 -15 0 -38 -4 -49 -9z"/>
<path d="M3970 9024 c0 -19 21 -28 30 -13 7 10 12 10 23 1 7 -7 17 -9 21 -5
12 12 46 10 46 -4 0 -7 5 -13 10 -13 6 0 10 -4 10 -9 0 -6 -9 -9 -19 -8 -11 0
-17 5 -15 9 6 10 -24 23 -33 14 -3 -3 0 -13 8 -22 9 -12 24 -15 51 -11 33 4
38 2 38 -15 0 -25 23 -48 49 -48 11 0 26 -8 33 -17 7 -10 26 -18 43 -18 20 0
30 -5 30 -15 0 -11 11 -15 43 -14 34 1 40 -2 31 -13 -8 -8 -8 -13 -1 -13 6 0
12 5 14 12 6 17 75 -38 75 -59 0 -10 -5 -21 -11 -25 -6 -5 -2 -8 11 -8 16 0
21 4 17 15 -4 9 1 18 12 22 11 4 19 2 22 -6 3 -8 13 -22 23 -32 11 -11 18 -22
17 -25 -2 -4 5 -12 15 -18 14 -8 20 -8 27 4 5 8 10 10 10 4 0 -7 8 -11 17 -10
10 0 18 -6 18 -14 1 -8 6 -14 13 -12 7 1 12 -2 12 -8 0 -5 -9 -10 -20 -10 -11
0 -20 -4 -20 -9 0 -15 24 -19 43 -7 14 9 21 7 31 -6 11 -15 13 -15 23 0 6 9
14 14 18 10 4 -4 3 -14 -3 -21 -9 -10 -8 -18 3 -33 8 -10 15 -14 15 -8 1 30
80 18 80 -13 0 -7 9 -13 21 -13 16 0 19 -4 14 -21 -9 -28 21 -50 52 -38 17 6
21 5 16 -6 -4 -11 2 -15 22 -15 22 0 25 3 16 13 -6 8 -8 17 -4 20 10 11 33 8
33 -3 0 -6 10 -24 22 -40 15 -21 27 -28 42 -24 32 8 60 -19 62 -57 3 -48 2
-47 23 -58 15 -9 18 -7 17 7 -1 12 7 17 27 18 20 1 27 -4 27 -18 0 -22 29 -36
39 -19 6 8 13 4 24 -13 10 -14 17 -30 17 -36 0 -5 5 -9 12 -7 7 1 13 -4 14
-10 1 -7 2 -17 3 -23 0 -5 9 -10 19 -10 9 0 26 -14 37 -30 20 -30 50 -40 57
-18 3 8 12 8 34 1 24 -9 26 -12 11 -18 -16 -7 -16 -10 5 -46 12 -21 29 -39 37
-40 11 0 12 -2 4 -6 -24 -9 -13 -19 24 -21 24 -2 46 -12 63 -30 31 -31 53 -46
96 -66 17 -8 35 -19 38 -25 4 -6 11 -9 16 -6 5 3 11 -3 14 -13 4 -10 30 -31
59 -46 28 -15 57 -35 64 -43 7 -9 19 -13 28 -10 8 4 15 2 15 -2 0 -11 57 -32
63 -23 2 4 2 2 1 -5 -2 -7 1 -15 7 -18 5 -4 7 -10 5 -14 -9 -13 41 -34 68 -29
19 4 27 0 31 -13 4 -11 13 -19 21 -19 8 0 14 -4 14 -10 0 -5 13 -10 28 -10 36
0 44 -8 31 -31 -7 -15 -6 -17 6 -13 13 5 15 38 15 225 0 120 -4 219 -8 219 -4
0 -27 17 -50 38 -23 20 -60 51 -83 67 -22 17 -45 38 -50 48 -5 9 -14 17 -20
17 -5 0 -20 11 -33 25 -13 14 -33 25 -44 25 -12 0 -23 8 -27 20 -3 11 -15 20
-26 20 -10 0 -27 8 -37 18 -10 9 -30 26 -44 36 -16 12 -24 25 -20 34 3 10 1
13 -5 9 -15 -9 -53 6 -79 31 -12 11 -30 22 -40 24 -11 2 -18 11 -18 21 2 19
-11 23 -21 7 -4 -6 -12 -4 -21 5 -9 8 -26 15 -38 15 -14 0 -27 9 -34 23 -6 12
-11 16 -11 8 -1 -9 -15 0 -35 22 -27 30 -43 38 -78 42 -33 3 -50 12 -72 37
-17 18 -31 27 -33 21 -5 -14 -31 -6 -56 18 -10 9 -35 20 -55 24 -20 4 -47 15
-60 25 -13 11 -30 16 -39 13 -10 -4 -14 -2 -10 4 5 7 -11 15 -42 22 -27 6 -65
20 -83 31 -18 11 -43 20 -55 20 -13 0 -23 4 -23 9 0 5 -10 13 -22 17 -13 3
-31 13 -40 22 -10 8 -18 12 -18 8 0 -4 -7 0 -16 8 -9 10 -24 14 -38 10 -14 -3
-37 3 -59 15 -20 11 -43 18 -50 15 -7 -2 -27 2 -43 11 -16 8 -37 15 -46 15
-10 0 -18 5 -18 11 0 5 -8 9 -17 8 -10 -2 -27 2 -38 8 -11 6 -38 14 -60 18
-22 4 -47 13 -55 21 -28 24 -114 35 -257 33 -107 -2 -143 -6 -143 -15z"/>
<path d="M3580 7898 c0 -7 -5 -20 -10 -28 -8 -12 -12 -11 -31 9 -19 21 -23 21
-31 7 -7 -12 -13 -14 -29 -6 -15 9 -19 7 -19 -5 0 -10 10 -15 31 -15 27 0 30
-2 19 -15 -19 -23 -37 -18 -52 15 -15 35 -31 40 -23 7 4 -15 1 -28 -9 -36 -13
-11 -16 -11 -16 3 0 9 -6 16 -12 15 -7 -1 -20 -1 -28 0 -12 1 -12 3 -2 9 9 7
8 13 -8 27 -17 15 -24 16 -46 6 -21 -9 -24 -14 -14 -26 9 -11 7 -16 -9 -25
-12 -6 -21 -20 -21 -31 0 -12 -8 -23 -20 -26 -23 -6 -27 -43 -4 -43 8 0 13 -4
9 -9 -6 -10 -57 -7 -75 4 -5 3 -10 13 -10 21 0 8 -6 14 -13 14 -19 0 -53 -27
-45 -35 8 -8 -15 -35 -30 -35 -5 0 -15 6 -21 14 -11 13 -19 12 -64 -1 -29 -8
-54 -19 -57 -23 -3 -5 -20 -8 -37 -8 -22 1 -35 8 -44 24 -6 13 -25 26 -41 30
-23 4 -29 10 -25 25 9 35 -58 31 -85 -5 -4 -6 -13 -4 -22 3 -23 19 -45 7 -42
-24 2 -14 1 -23 -2 -20 -3 3 -16 -5 -29 -17 -13 -12 -23 -17 -23 -11 0 15 -26
24 -46 16 -10 -3 -14 -13 -11 -25 8 -28 -35 -20 -48 10 -6 13 -18 22 -32 22
-22 0 -28 -9 -24 -38 3 -18 -19 -43 -31 -36 -5 4 -8 -4 -6 -17 2 -19 9 -24 32
-24 16 -1 31 -6 34 -13 2 -7 9 -9 15 -5 7 4 8 0 4 -11 -4 -10 -7 -19 -7 -20 0
-1 -18 0 -40 2 -34 3 -39 2 -34 -12 7 -19 44 -22 44 -3 0 9 3 8 9 -2 5 -7 14
-10 20 -7 6 4 11 4 12 -1 6 -60 3 -77 -14 -81 -11 -3 -17 -12 -15 -25 2 -15
-5 -23 -27 -29 -16 -5 -40 -14 -52 -20 -17 -8 -30 -8 -48 0 -37 17 -51 15 -51
-8 0 -11 4 -20 9 -20 4 0 5 -5 2 -11 -4 -6 -13 -8 -20 -5 -8 3 -11 -2 -8 -15
3 -10 0 -19 -6 -19 -6 0 -11 5 -11 10 0 6 -5 10 -11 10 -6 0 -9 -7 -6 -14 4
-10 1 -13 -7 -10 -7 3 -18 -7 -24 -21 -11 -23 -16 -25 -89 -27 -43 0 -85 0
-93 0 -29 3 -90 -10 -85 -18 5 -8 -31 -24 -80 -35 -58 -13 -125 -49 -120 -65
7 -23 -10 -44 -32 -38 -22 6 -44 -14 -46 -41 0 -10 -6 -17 -12 -15 -13 6 -17
-33 -4 -42 5 -3 -1 -14 -13 -24 -14 -12 -18 -19 -9 -20 9 0 11 -7 6 -22 -3
-13 -8 -34 -10 -47 -2 -13 -9 -27 -16 -31 -6 -4 -8 -13 -4 -19 9 -16 -3 -63
-14 -56 -30 18 -33 -170 -4 -320 8 -44 16 -111 17 -150 4 -95 -10 -255 -23
-268 -8 -8 -11 -8 -11 0 0 6 -7 13 -15 17 -10 4 -8 -4 7 -25 l23 -31 -3 -431
c-2 -248 1 -464 7 -507 40 -304 60 -435 82 -530 5 -25 16 -85 24 -135 8 -49
23 -130 35 -180 11 -49 27 -121 35 -158 8 -38 17 -72 20 -77 5 -8 13 -38 65
-235 42 -160 52 -193 71 -245 11 -30 33 -80 48 -110 16 -30 53 -107 83 -170
139 -289 244 -489 270 -518 10 -10 18 -26 18 -35 0 -9 4 -18 9 -21 5 -3 19
-25 31 -48 28 -54 31 -109 6 -140 -11 -12 0 -4 23 20 41 42 42 44 27 67 -9 13
-16 35 -15 47 l0 23 11 -22 c6 -13 20 -23 30 -23 11 0 17 -3 15 -7 -3 -5 7
-23 22 -41 l28 -32 0 30 c0 39 10 48 28 24 15 -19 15 -19 30 0 8 11 17 17 20
14 3 -3 -1 -13 -10 -22 -9 -9 -13 -16 -9 -16 4 0 -5 -12 -20 -26 -30 -30 -33
-44 -11 -44 9 0 15 -6 14 -12 -3 -26 1 -39 12 -33 6 4 8 13 5 21 -4 10 2 14
18 14 35 0 56 10 56 26 0 17 24 18 52 3 18 -10 17 -12 -20 -32 -80 -44 -86
-51 -73 -75 9 -16 18 -21 32 -17 13 4 19 2 19 -9 0 -9 -5 -16 -12 -16 -7 0 3
-11 20 -24 31 -22 31 -24 11 -29 -28 -8 -14 -30 16 -24 17 3 25 -1 29 -15 3
-14 0 -18 -10 -14 -17 6 -18 -10 -3 -52 10 -28 12 -30 26 -16 9 8 22 13 31 9
8 -3 20 -1 27 5 23 19 27 -8 5 -30 -11 -11 -18 -25 -15 -30 4 -6 0 -10 -7 -10
-7 0 -4 -6 7 -12 11 -6 25 -19 32 -27 11 -14 12 -14 13 2 0 25 18 41 60 53 23
7 35 16 34 27 -2 18 29 32 46 22 17 -11 11 -25 -16 -35 -14 -6 -23 -14 -19
-19 3 -5 1 -12 -5 -16 -15 -9 -12 -25 4 -25 8 0 16 -7 20 -15 3 -9 12 -12 22
-8 14 5 15 1 10 -25 -7 -30 6 -52 19 -32 7 12 16 12 33 1 11 -6 5 -17 -24 -45
-24 -24 -34 -40 -28 -46 13 -13 44 9 49 35 2 11 4 22 4 24 1 3 12 -6 25 -18
25 -24 26 -30 9 -71 -16 -39 -22 -95 -13 -111 8 -11 10 -11 13 1 2 8 11 39 20
68 9 30 13 60 10 68 -3 9 1 14 12 14 9 0 19 9 22 20 4 14 12 20 27 18 15 -2
21 2 21 16 0 13 10 22 28 27 27 7 32 1 30 -49 -1 -6 9 -12 22 -12 17 0 25 8
30 27 4 17 2 29 -4 31 -6 2 -11 8 -11 13 0 15 39 49 45 39 3 -5 1 -11 -5 -15
-11 -7 -8 -35 10 -80 l12 -30 11 25 c5 14 9 29 8 34 -1 4 9 18 22 30 13 11 28
30 32 41 10 26 6 68 -8 77 -7 4 -7 11 2 22 17 20 33 11 30 -17 -3 -45 1 -53
15 -34 13 16 14 16 20 -8 4 -14 4 -30 1 -35 -4 -6 1 -10 9 -10 9 0 16 3 16 8
0 4 11 12 25 19 33 15 32 -1 -1 -32 -14 -13 -23 -28 -20 -34 4 -5 -4 -11 -16
-13 -13 -2 -24 -11 -26 -22 -3 -14 0 -17 13 -13 10 4 14 3 10 -4 -4 -6 2 -13
14 -16 12 -3 21 -13 21 -22 1 -11 5 -8 15 9 12 23 55 38 55 19 0 -5 5 -9 10
-9 6 0 10 8 10 17 0 13 3 14 12 5 15 -15 48 -16 48 -2 0 6 5 10 11 10 8 0 7
-5 -2 -16 -11 -13 -8 -19 16 -38 15 -12 38 -22 49 -21 14 2 15 1 4 -2 -10 -2
-18 -9 -18 -14 0 -10 12 -12 47 -10 16 2 24 -6 34 -32 11 -31 13 -33 30 -19 9
8 15 20 13 26 -2 6 9 20 26 31 37 25 40 55 5 55 -25 0 -50 -31 -37 -45 4 -4 1
-6 -7 -3 -20 6 -25 88 -6 88 8 0 17 -5 20 -10 3 -5 19 -10 35 -10 16 0 32 -4
35 -10 3 -5 16 -10 27 -10 12 0 18 3 15 7 -4 3 1 12 10 18 15 11 15 15 4 29
-18 21 -3 21 21 -1 12 -10 18 -12 18 -4 0 8 7 10 20 6 25 -8 27 10 3 24 -10 5
-15 12 -11 16 8 8 48 -17 48 -31 0 -5 17 -18 38 -29 20 -10 32 -19 27 -21 -17
-6 -5 -94 12 -94 9 0 13 6 9 15 -3 10 3 17 19 21 29 7 40 35 26 63 -14 26 -14
34 1 29 7 -3 15 -15 18 -28 7 -31 30 -38 30 -10 0 13 4 19 11 14 6 -3 15 0 20
7 14 23 20 3 8 -27 -7 -16 -11 -35 -10 -41 1 -7 -2 -13 -8 -13 -5 0 -7 -9 -4
-20 3 -11 10 -20 15 -20 6 0 8 7 4 15 -7 20 23 20 38 -1 7 -9 24 -17 39 -17
15 -1 29 -7 31 -13 3 -7 21 -12 40 -12 32 0 35 2 26 19 -8 15 -7 17 5 13 8 -4
15 -14 15 -23 0 -9 6 -23 13 -30 10 -11 7 -12 -17 -7 -26 6 -27 6 -12 -9 9 -9
16 -21 16 -26 0 -5 7 -9 16 -9 8 0 13 -4 10 -9 -8 -12 4 -41 16 -41 6 0 8 13
6 30 -2 16 -1 31 3 32 4 2 3 26 -1 53 -9 56 -5 68 15 42 9 -12 15 -14 20 -7 5
8 11 8 20 0 15 -13 58 -7 63 8 7 21 18 13 36 -28 10 -22 21 -40 24 -40 4 0 13
14 21 31 8 19 18 28 27 25 11 -4 13 1 8 19 -8 33 15 33 46 0 13 -14 32 -25 43
-25 20 0 20 1 -1 23 -12 13 -22 27 -22 31 0 4 -7 14 -15 23 -19 18 -11 31 8
15 8 -7 18 -8 22 -4 5 4 5 -1 2 -10 -4 -10 -2 -18 4 -18 6 0 8 -4 5 -9 -5 -7
44 -24 51 -17 1 1 -12 21 -30 44 -42 54 -79 115 -67 107 5 -3 23 -25 41 -50
17 -24 37 -41 44 -39 7 3 16 1 20 -5 14 -23 23 -10 15 20 -5 18 -7 29 -4 27 3
-3 21 -2 41 3 48 10 69 -2 80 -48 5 -24 15 -39 27 -41 15 -3 16 -1 6 17 -6 12
-8 26 -5 31 3 5 -10 26 -30 45 -19 20 -35 40 -35 45 0 19 18 10 45 -22 21 -25
28 -29 36 -17 6 10 2 19 -12 32 -12 10 -19 20 -16 23 7 7 58 -26 53 -35 -7
-11 12 -36 20 -28 4 4 0 32 -8 62 -17 60 -10 68 28 30 14 -14 26 -25 28 -25 6
0 0 56 -8 68 -14 24 17 23 43 -2 30 -29 43 -33 35 -11 -4 9 0 15 10 15 9 0 16
4 16 8 0 4 9 8 20 9 11 1 20 -2 20 -8 0 -5 -5 -9 -10 -9 -14 0 16 -56 34 -63
10 -4 15 5 18 34 2 22 0 46 -5 55 -12 21 -5 26 40 28 33 1 38 -2 36 -21 -1
-11 4 -26 12 -33 11 -10 15 -7 20 13 8 32 2 73 -10 70 -6 -1 -19 -5 -30 -8
-14 -5 -16 -4 -6 3 11 8 10 14 -4 36 -10 15 -15 29 -12 32 10 10 47 -7 47 -22
0 -20 49 -64 71 -64 11 0 30 -17 45 -40 15 -22 30 -40 35 -40 11 0 -49 91 -75
112 -19 16 -20 18 -3 18 18 0 18 1 -1 33 l-19 33 28 -4 c39 -6 37 13 -3 27
-26 9 -30 14 -18 21 10 6 17 4 23 -6 5 -8 12 -12 18 -9 5 4 9 2 9 -4 0 -6 17
-15 37 -20 40 -11 58 0 47 29 -19 47 -18 53 9 48 19 -4 27 -1 27 8 0 8 5 14
11 14 6 0 9 9 6 19 -3 15 2 20 25 25 26 5 29 8 18 21 -18 21 -7 19 20 -5 22
-19 46 -19 35 1 -3 5 2 6 11 2 14 -5 16 -2 12 14 -4 16 -1 19 18 15 29 -5 31
9 4 33 -30 27 -9 41 30 22 40 -20 62 -13 54 18 -7 29 32 57 47 34 6 -11 9 -10
15 4 3 9 13 17 21 17 8 0 13 7 11 17 -5 27 29 61 56 56 21 -4 24 -10 22 -53
-1 -41 -3 -45 -14 -29 -7 10 -11 24 -10 30 2 7 -5 15 -15 17 -13 3 -18 -2 -17
-15 4 -38 0 -62 -15 -77 -19 -18 -19 -50 -1 -65 11 -9 15 -9 19 1 3 7 6 3 6
-9 1 -18 -4 -22 -21 -20 -12 2 -24 9 -26 15 -2 7 -11 12 -19 12 -10 0 -13 -6
-9 -15 7 -20 -20 -31 -37 -16 -10 8 -17 7 -25 -1 -9 -9 -15 -8 -24 5 -12 16
-14 16 -25 -2 -11 -17 -10 -21 7 -26 11 -4 29 -3 40 0 11 4 20 2 20 -4 0 -6 6
-11 14 -11 8 0 18 -5 22 -11 5 -9 -1 -10 -22 -5 -19 4 -24 3 -15 -3 17 -11 6
-31 -19 -31 -10 0 -24 -8 -29 -17 -9 -16 -12 -16 -21 -3 -6 9 -10 10 -10 3 0
-6 5 -15 10 -18 14 -9 -7 -45 -26 -45 -8 0 -12 -4 -9 -10 12 -19 -14 -10 -35
12 -24 26 -27 8 -4 -28 12 -17 22 -23 35 -19 11 4 19 2 19 -5 0 -6 -5 -8 -11
-4 -8 4 -9 0 -4 -15 4 -12 2 -21 -4 -21 -6 0 -11 -6 -11 -14 0 -7 -6 -19 -14
-25 -11 -9 -15 -7 -20 13 -5 21 -12 24 -40 23 -29 -2 -33 -5 -25 -19 6 -10 15
-18 22 -18 7 0 18 -5 25 -12 16 -16 52 -21 52 -7 0 8 4 8 15 -1 10 -9 11 -15
3 -24 -13 -13 -48 -16 -48 -4 0 14 -23 9 -43 -9 -18 -17 -19 -17 -16 2 3 13
-2 21 -15 23 -15 3 -18 0 -13 -17 3 -12 -1 -28 -9 -35 -11 -11 -11 -16 -1 -19
9 -4 9 -8 -2 -15 -10 -7 -11 -14 -2 -31 7 -11 8 -21 2 -21 -5 0 -12 11 -15 25
-10 38 -34 21 -33 -23 0 -20 5 -43 10 -49 6 -9 6 -13 -1 -13 -6 0 -13 3 -15 8
-4 6 -62 7 -77 2 -3 -1 -8 -2 -12 -1 -4 0 -12 -8 -18 -20 -8 -14 -17 -18 -31
-14 -16 5 -19 1 -19 -29 0 -25 -4 -36 -15 -36 -8 0 -15 -4 -15 -9 0 -5 7 -14
15 -21 8 -7 15 -20 15 -29 0 -12 -5 -10 -19 8 -19 25 -47 21 -37 -6 4 -9 1
-22 -5 -29 -6 -8 -8 -14 -5 -14 4 0 0 -7 -8 -16 -15 -14 -18 -14 -39 3 -13 10
-22 23 -20 29 4 11 -45 49 -53 41 -5 -5 25 -65 37 -72 15 -10 10 -35 -6 -29
-25 10 -18 -24 10 -48 14 -12 25 -25 25 -30 0 -18 -33 -6 -63 22 -37 34 -47
37 -48 13 -2 -36 -6 -63 -11 -68 -2 -3 -19 9 -36 26 -18 17 -32 26 -32 19 0
-7 8 -18 17 -25 15 -11 15 -14 -4 -38 -19 -24 -21 -25 -36 -9 -16 15 -17 15
-17 -1 0 -15 -3 -14 -25 5 -14 12 -25 28 -25 35 0 21 -16 15 -28 -12 -13 -29
-34 -32 -53 -9 -15 18 -57 11 -74 -13 -7 -9 -17 -13 -23 -9 -7 4 -12 2 -12 -3
0 -6 -5 -11 -11 -11 -6 0 -7 5 -2 13 12 20 14 47 2 47 -5 0 -8 -4 -5 -9 3 -4
-3 -16 -13 -25 -12 -11 -21 -13 -25 -7 -5 7 -15 7 -31 1 -16 -6 -25 -6 -25 0
0 6 8 10 18 10 12 1 9 5 -11 16 -35 19 -49 11 -37 -21 10 -25 -2 -36 -16 -14
-4 8 -9 7 -15 -2 -7 -11 -11 -12 -17 -1 -14 21 -65 31 -78 14 -9 -12 -13 -12
-26 2 -16 15 -38 22 -38 11 0 -3 7 -17 16 -30 15 -23 15 -25 0 -25 -9 0 -16
-5 -16 -10 0 -7 -6 -8 -17 -2 -21 12 -61 -4 -68 -29 -8 -23 -25 -28 -55 -16
-69 28 -128 31 -143 6 -11 -17 -12 -17 -31 -1 -21 19 -21 21 -1 -44 6 -18 3
-20 -24 -16 -19 2 -31 0 -31 -7 0 -6 -5 -11 -10 -11 -6 0 -8 11 -4 25 4 15 2
25 -4 25 -15 0 -25 -36 -16 -62 6 -21 4 -20 -15 4 -12 15 -25 27 -29 27 -19
-3 -25 2 -12 11 12 8 10 10 -9 10 -18 0 -22 -4 -18 -20 l5 -20 -28 20 c-31 22
-50 26 -50 10 0 -5 -9 -10 -21 -10 -15 0 -19 -4 -15 -16 3 -9 3 -21 -1 -27 -5
-7 -8 -22 -8 -34 0 -25 -17 -32 -26 -11 -19 42 -28 53 -45 53 -10 0 -19 -5
-19 -12 0 -24 -20 -31 -50 -17 -16 7 -24 13 -17 14 15 0 16 32 1 47 -15 15
-39 5 -32 -13 8 -22 -7 -16 -28 10 -20 26 -69 30 -77 7 -3 -8 6 -11 24 -9 24
2 30 -1 32 -20 2 -15 -2 -22 -13 -22 -26 0 -75 29 -75 45 0 7 -5 17 -11 21 -7
4 -9 0 -5 -14 7 -20 -15 -37 -41 -33 -18 3 -16 -9 5 -32 10 -12 13 -21 6 -24
-10 -3 10 -79 28 -109 9 -14 128 -341 128 -351 0 -13 60 -206 77 -244 8 -21
18 -52 22 -70 4 -19 12 -33 17 -32 5 1 10 -10 11 -24 0 -14 7 -29 15 -34 7 -5
13 -16 14 -26 0 -10 3 -25 7 -33 5 -14 15 -56 17 -72 0 -4 11 -26 24 -49 20
-34 36 -46 91 -70 173 -73 339 -121 421 -123 30 -1 50 -5 48 -11 -3 -6 46 -11
131 -12 80 0 141 -5 149 -12 9 -8 16 -7 26 2 10 9 11 9 6 0 -9 -17 36 -17 52
-1 9 9 12 9 12 0 0 -6 7 -9 15 -6 12 5 13 9 4 20 -14 18 -7 26 25 30 24 2 55
-21 43 -32 -3 -4 0 -13 8 -20 11 -12 121 -14 644 -14 l631 0 0 1359 c0 1078
-3 1360 -12 1364 -10 4 -10 6 0 6 19 1 15 61 -5 61 -15 0 -15 1 0 18 16 17 17
194 17 2335 0 2265 0 2317 -19 2326 -10 6 -54 12 -97 15 -58 3 -81 8 -90 21
-7 9 -17 14 -22 11 -6 -3 -23 -1 -39 6 -15 6 -41 12 -58 13 -22 1 -33 8 -43
28 -11 22 -18 26 -38 21 -17 -4 -31 -1 -44 11 -11 10 -23 15 -27 11 -4 -4 -1
-11 7 -16 8 -6 10 -10 4 -10 -5 0 -15 5 -21 11 -13 13 -99 18 -132 7 -16 -6
-36 -3 -62 9 -37 16 -51 33 -29 33 6 0 10 5 10 10 0 6 -7 10 -15 10 -10 0 -15
-10 -15 -30 0 -17 5 -30 12 -30 16 0 -2 -18 -34 -34 -13 -6 -24 -22 -26 -36
-6 -50 -32 -90 -57 -90 -17 0 -23 -4 -19 -14 4 -9 -6 -16 -31 -20 -19 -4 -33
-11 -30 -17 8 -11 -5 -12 -24 0 -9 6 -19 4 -28 -5 -8 -8 -20 -11 -26 -7 -8 5
-6 9 6 11 20 4 18 23 -4 30 -8 3 -11 1 -7 -3 13 -14 -31 -38 -46 -26 -17 14
-171 27 -162 13 4 -6 -20 -8 -67 -5 -215 13 -361 3 -425 -29 -17 -9 -25 -9
-34 0 -15 15 -48 16 -48 1 0 -6 -8 -8 -19 -4 -35 11 -93 8 -101 -5 -4 -7 -13
-9 -20 -5 -24 15 -188 15 -193 1 -8 -20 -65 -8 -72 15 -4 10 -3 24 1 30 3 6 1
15 -7 19 -10 7 -10 14 -2 32 6 13 9 42 8 65 -3 38 -1 42 26 52 28 10 34 22 29
64 -1 14 4 16 24 11 26 -6 26 -6 20 40 -6 42 -5 46 15 46 14 0 21 6 21 20 0
11 -7 20 -15 20 -19 0 -19 9 2 32 15 17 15 18 -3 19 -10 1 -25 1 -32 0 -8 -1
-19 3 -27 9 -9 8 -20 7 -40 -2 -22 -10 -28 -9 -36 3 -13 21 -11 29 8 29 26 0
6 13 -23 15 -15 0 -31 -7 -39 -18 -16 -22 -65 -50 -65 -37 0 5 11 12 25 16 14
3 25 13 25 21 0 11 -6 14 -22 9 -13 -3 -29 -6 -35 -6 -7 0 -13 -7 -13 -16 0
-11 -5 -14 -16 -10 -10 4 -25 -1 -36 -10 -25 -23 -36 -9 -12 17 18 20 18 20
-23 16 -23 -3 -47 -8 -52 -12 -6 -3 -11 -1 -11 4 0 21 -21 11 -30 -14 -12 -30
-14 -31 -39 -4 -11 12 -32 22 -46 22 -19 0 -25 4 -20 15 6 15 -11 42 -26 42
-5 0 -9 -6 -9 -12z m-856 -528 c20 0 27 -4 23 -14 -3 -8 2 -16 14 -19 10 -3
19 -1 19 4 0 14 36 10 50 -6 6 -8 9 -19 5 -25 -3 -5 0 -10 8 -10 8 0 17 -9 20
-20 3 -14 14 -20 31 -20 21 0 26 -5 26 -25 0 -14 -8 -33 -17 -43 -10 -10 -24
-26 -32 -35 -12 -15 -12 -17 4 -11 14 6 16 4 10 -7 -5 -7 -10 -31 -11 -52 -1
-21 -10 -47 -20 -58 -17 -19 -17 -21 -2 -30 15 -8 15 -13 2 -47 -7 -20 -18
-57 -25 -81 -7 -30 -13 -40 -19 -31 -6 9 -11 7 -20 -10 -12 -22 -15 -93 -6
-163 2 -22 -1 -40 -8 -45 -16 -10 -37 -54 -38 -82 -1 -14 -6 -31 -12 -38 -7
-10 -5 -16 5 -23 10 -6 10 -9 2 -9 -7 0 -13 -9 -13 -20 0 -11 -6 -23 -12 -25
-8 -3 -13 -24 -13 -53 0 -26 -7 -61 -18 -80 -9 -18 -15 -37 -12 -42 3 -5 -3
-16 -12 -26 -10 -10 -18 -25 -18 -33 0 -11 -9 -15 -26 -14 -22 1 -26 -3 -25
-25 1 -22 -4 -28 -24 -31 -25 -3 -25 -3 -6 18 11 12 16 24 12 28 -11 11 -41
-13 -38 -30 2 -10 -5 -14 -23 -13 -15 0 -23 6 -21 13 3 8 -4 9 -24 3 -16 -4
-32 -5 -36 -2 -4 4 -4 1 0 -5 5 -8 1 -13 -11 -14 -13 0 -14 -2 -3 -6 8 -3 23
-15 35 -26 20 -20 20 -20 0 -12 -42 16 -55 17 -55 5 0 -7 -8 -10 -20 -7 -27 7
-47 -18 -30 -38 7 -9 10 -19 6 -23 -4 -4 -14 1 -21 11 -9 13 -14 15 -17 5 -4
-10 -8 -10 -19 -1 -11 9 -23 7 -53 -8 -48 -23 -45 -23 -39 1 6 21 -13 28 -19
8 -3 -9 -9 -8 -21 4 -16 15 -16 17 1 21 9 3 1 5 -19 6 -20 0 -41 7 -48 14 -8
11 -4 13 21 9 27 -4 30 -2 24 14 -4 10 -4 15 0 11 13 -12 32 13 26 35 -3 14
-1 19 6 14 6 -3 13 -2 17 4 3 5 2 10 -4 10 -5 0 -16 7 -25 15 -13 13 -19 14
-37 3 -17 -10 -23 -10 -26 0 -3 6 -11 12 -19 12 -8 0 -11 6 -8 15 8 20 -5 19
-29 -2 -19 -17 -20 -17 -14 -1 4 13 2 16 -11 11 -9 -3 -23 -11 -30 -17 -11 -8
-13 -5 -10 10 2 13 -2 18 -12 15 -8 -3 -26 -5 -40 -7 -31 -2 -63 -14 -73 -28
-5 -6 -5 0 -1 14 4 14 8 42 10 63 1 21 4 41 8 44 3 4 6 14 6 23 0 21 23 70 33
70 4 0 7 7 7 15 0 9 7 18 15 21 14 6 13 8 -2 19 -15 11 -15 15 -4 29 12 14 11
16 -8 16 -14 0 -21 6 -21 20 0 11 -6 29 -12 41 -11 17 -10 22 5 30 9 6 17 15
17 21 0 14 40 48 57 48 9 0 12 -7 7 -25 -10 -39 28 -29 40 12 5 17 13 21 36
18 25 -3 31 0 36 20 3 14 12 25 20 25 7 0 18 9 24 20 12 23 101 110 112 110 5
0 8 6 8 14 0 8 15 29 33 48 17 18 41 51 52 72 11 22 30 50 42 64 12 13 25 33
28 43 4 11 11 19 16 19 5 0 9 6 9 14 0 8 11 28 25 44 14 17 25 36 25 43 0 8
25 41 55 74 l56 60 -28 5 -28 6 33 11 c17 7 32 18 32 26 0 11 10 11 53 -4 28
-10 65 -18 81 -19z m2280 -81 c10 0 37 -10 60 -21 44 -23 51 -26 109 -35 21
-3 40 -10 43 -14 3 -5 17 -9 32 -9 24 0 27 -4 29 -35 2 -32 0 -34 -17 -25 -11
6 -24 19 -30 30 -6 11 -20 20 -31 20 -19 0 -19 -2 -4 -30 20 -39 7 -38 -26 2
-17 20 -37 33 -52 33 -14 1 -37 9 -52 19 -31 21 -54 17 -34 -5 22 -23 40 -59
30 -59 -5 0 -11 7 -15 15 -10 27 -32 16 -52 -27 -16 -37 -26 -45 -69 -59 -37
-12 -55 -13 -67 -5 -14 8 -22 6 -38 -12 -23 -24 -30 -25 -201 -27 l-107 -1
-16 31 c-10 17 -23 53 -31 81 -12 42 -14 46 -21 26 -4 -13 -12 -21 -20 -18 -7
3 -14 0 -17 -7 -2 -8 -10 -6 -22 6 -15 16 -16 20 -4 28 8 5 22 9 32 9 9 0 17
7 17 15 0 9 6 12 15 8 9 -3 24 2 34 11 9 9 33 19 52 22 19 4 40 12 47 17 10 8
16 7 22 -3 7 -11 13 -10 35 4 15 10 33 15 40 12 7 -2 26 -1 42 4 15 4 82 6
148 3 66 -2 129 -4 139 -4z m-1301 -1680 c52 -14 109 -72 101 -104 -6 -23 -57
-51 -74 -40 -5 3 -10 0 -12 -5 -5 -15 -70 -29 -102 -23 -14 3 -26 12 -26 20 0
13 -3 13 -15 3 -14 -11 -19 -7 -16 13 0 4 -8 7 -19 7 -23 0 -100 66 -100 86 0
13 27 22 125 41 70 14 94 14 138 2z m-909 -271 c157 -54 167 -61 163 -107 -3
-36 -3 -36 -49 -35 -38 1 -51 6 -72 30 -22 24 -27 27 -36 14 -8 -13 -10 -13
-10 1 0 10 -23 28 -56 45 -31 16 -59 34 -61 41 -3 7 -11 13 -19 13 -12 0 -12
4 -2 20 7 11 15 20 17 20 2 0 58 -19 125 -42z m103 -267 c-15 -13 -26 -30 -23
-37 3 -8 1 -14 -4 -14 -6 0 -10 -8 -10 -18 0 -10 -6 -24 -12 -31 -11 -10 -9
-15 7 -24 11 -6 27 -11 35 -12 8 0 14 -8 14 -17 -1 -10 3 -18 9 -18 6 0 8 -2
5 -5 -11 -11 -103 19 -120 39 -20 25 -23 43 -6 48 14 5 22 48 8 48 -5 0 -5 12
2 30 8 24 13 28 23 20 10 -8 15 -8 21 1 4 7 2 15 -5 17 -9 3 -9 7 -1 17 6 8
18 11 25 9 8 -4 21 8 32 28 l18 33 5 -45 c4 -40 2 -48 -23 -69z m-139 -219 c2
-7 -4 -12 -13 -12 -14 0 -15 -3 -6 -14 7 -8 20 -12 30 -9 14 3 21 -2 26 -19 5
-12 14 -27 21 -33 16 -13 22 -43 9 -44 -5 -1 -11 4 -11 9 -1 6 -2 14 -3 19 0
5 -10 7 -21 4 -25 -7 -22 -39 3 -35 24 4 21 -21 -4 -38 -41 -29 -51 -43 -46
-69 3 -14 0 -35 -5 -45 -8 -15 -8 -21 1 -24 17 -6 13 -22 -7 -22 -9 0 -22 -10
-27 -22 -8 -20 -18 -23 -62 -24 -29 0 -56 -4 -60 -7 -3 -4 3 -7 15 -7 12 0 22
-4 22 -8 0 -15 -24 -32 -43 -32 -11 0 -25 -7 -32 -17 -11 -15 -14 -14 -33 5
l-22 22 -6 -24 c-4 -16 -11 -23 -20 -19 -17 6 -18 30 -2 35 10 4 10 10 1 31
-14 30 0 37 16 10 10 -17 10 -17 11 0 0 10 4 15 10 12 5 -3 18 -1 27 4 17 10
16 10 -2 11 -17 0 -18 2 -5 11 11 8 12 12 3 16 -7 2 -13 13 -13 23 0 24 34 15
47 -12 7 -16 21 -22 62 -25 46 -4 52 -2 49 13 -1 10 -9 19 -17 22 -8 3 -11 0
-7 -7 12 -19 -30 -12 -49 9 -10 11 -22 17 -26 14 -5 -3 -9 2 -9 11 0 9 5 13
10 10 14 -9 12 29 -2 44 -11 11 -9 13 11 8 17 -4 24 -1 28 14 4 15 14 19 48
19 35 0 45 4 50 20 4 13 15 20 33 20 20 0 23 3 14 12 -10 10 -17 10 -33 0 -16
-10 -22 -10 -35 2 -8 8 -13 21 -12 28 2 7 -4 12 -14 10 -10 -2 -15 4 -14 15 4
23 21 27 39 8 11 -11 22 -12 39 -6 22 9 22 10 2 10 -24 1 -39 26 -23 37 6 3 8
11 6 17 -4 14 23 38 37 34 6 -2 12 -9 14 -15z m142 -868 c0 -6 -79 -54 -87
-53 -5 1 -26 -6 -49 -16 -31 -13 -46 -27 -62 -61 -15 -31 -32 -48 -57 -59 -23
-9 -34 -19 -29 -26 4 -7 -1 -18 -11 -25 -10 -8 -15 -20 -11 -29 8 -22 -42 -41
-67 -25 -24 15 -31 7 -33 -35 0 -25 4 -35 19 -39 22 -5 14 -26 -11 -26 -25 0
-49 18 -37 28 6 4 12 19 13 35 1 19 -3 27 -16 28 -10 0 -12 3 -4 6 23 9 12 24
-15 21 -39 -4 -36 21 5 44 28 15 33 16 37 3 3 -8 7 -22 10 -31 7 -23 25 -6 25
25 0 15 7 36 15 47 12 16 16 17 24 4 12 -17 15 -15 29 26 8 26 7 35 -6 49 -16
16 -16 17 5 11 16 -5 30 2 57 29 24 24 44 35 65 35 16 0 31 5 33 11 6 17 158
39 158 23z m-147 -1253 c-3 -14 0 -19 13 -18 9 1 19 -4 22 -12 2 -8 0 -11 -6
-7 -6 4 -8 -2 -4 -16 l5 -21 19 23 19 23 22 -22 c20 -18 32 -20 75 -16 28 3
53 1 57 -4 8 -13 -31 -24 -60 -17 -27 7 -95 -28 -95 -49 0 -8 6 -20 14 -27 20
-20 30 -76 17 -92 -15 -17 -4 -46 18 -46 24 -1 -35 -50 -60 -50 -11 0 -30 -5
-41 -11 -11 -6 -18 -7 -14 -1 3 5 -1 24 -10 41 -18 35 -13 61 11 61 12 0 15 8
13 33 -3 34 -9 36 -85 21 -29 -5 -33 -4 -33 15 0 11 5 21 10 21 6 0 10 6 10
14 0 24 23 36 43 22 17 -14 23 -27 10 -25 -19 3 -31 -2 -36 -15 -4 -10 0 -14
14 -13 10 1 19 5 19 9 0 4 6 5 13 3 19 -7 35 7 38 35 3 20 -1 26 -19 28 -13 2
-32 17 -43 35 -23 39 -25 59 -3 50 14 -5 16 -2 10 20 -6 24 -3 27 18 27 19 0
23 -4 19 -19z m116 -392 c20 -7 31 -18 31 -30 0 -18 10 -23 37 -20 7 1 17 -7
22 -18 6 -11 20 -23 31 -26 27 -9 25 -29 -5 -49 -22 -14 -25 -14 -33 0 -4 8
-19 15 -33 15 -13 -1 -34 -1 -46 -1 -12 0 -25 -5 -28 -10 -3 -6 -15 -10 -25
-10 -22 0 -46 35 -30 45 5 3 6 13 3 21 -4 12 1 14 23 12 34 -4 47 26 15 35
-14 3 -18 11 -14 26 6 24 9 25 52 10z m1793 -1766 c10 -9 18 -30 18 -49 0 -43
-30 -64 -92 -64 -47 0 -48 -1 -48 -31 0 -24 -4 -30 -17 -27 -14 3 -18 14 -18
53 l0 50 63 5 c34 3 62 8 62 13 0 4 0 12 0 17 0 6 -28 10 -65 10 -58 0 -65 2
-65 20 0 18 7 20 72 20 52 0 76 -4 90 -17z"/>
<path d="M2560 2142 c0 -10 5 -23 11 -29 7 -7 6 -12 -5 -16 -11 -5 -16 0 -16
13 0 23 -16 26 -36 6 -18 -19 -18 -30 1 -22 8 3 15 1 15 -4 0 -6 -8 -10 -17
-10 -30 -1 -60 -32 -93 -100 -18 -35 -44 -82 -59 -105 -14 -22 -30 -47 -36
-57 -29 -47 -110 -164 -120 -173 -10 -9 -23 -36 -25 -50 0 -2 -12 -17 -25 -31
-14 -15 -25 -31 -25 -36 0 -5 -21 -37 -47 -72 -79 -106 -133 -185 -133 -196 0
-6 -5 -10 -10 -10 -6 0 -16 -12 -22 -27 -7 -16 -21 -41 -33 -58 -29 -44 -44
-68 -52 -85 -3 -8 -39 -65 -78 -125 -40 -61 -85 -135 -100 -165 -15 -30 -35
-64 -45 -75 -9 -11 -29 -42 -45 -70 -61 -108 -137 -253 -169 -320 -19 -38 -59
-122 -90 -185 -31 -63 -56 -121 -56 -127 0 -10 105 -13 499 -13 l499 0 85 133
c46 72 106 173 132 222 26 50 51 95 56 101 5 7 9 16 7 20 -4 16 27 54 44 54
25 0 31 17 14 42 -20 28 -20 48 -1 48 20 0 39 37 22 43 -9 4 -9 6 1 6 7 1 15
-6 18 -14 4 -8 10 -15 16 -15 16 0 40 29 33 40 -3 5 -1 10 4 10 6 0 11 5 11
11 0 5 -4 8 -8 5 -13 -8 -53 24 -46 35 4 6 13 4 24 -6 24 -22 48 -10 42 21 -3
17 2 30 17 43 11 10 21 23 21 29 0 5 14 9 32 8 26 -1 35 5 47 29 9 17 19 32
22 35 16 12 89 115 89 125 -1 5 -8 -3 -17 -20 -15 -27 -17 -28 -23 -10 -9 23
-11 36 -7 33 2 -2 11 4 20 14 9 9 22 19 29 21 10 4 9 8 -2 16 -10 7 -11 11 -2
11 6 0 12 9 12 21 0 16 4 19 18 14 9 -4 26 -10 36 -13 28 -8 10 17 -21 29 -24
9 -24 29 1 29 8 0 16 11 18 25 4 17 1 25 -9 25 -8 0 -12 -4 -8 -9 3 -5 1 -12
-5 -16 -9 -5 -15 14 -11 37 0 4 -6 5 -14 2 -10 -4 -15 0 -15 14 0 11 -7 25
-15 32 -16 14 -20 40 -6 40 5 0 21 -13 34 -30 14 -16 33 -30 42 -30 9 0 27
-11 41 -25 31 -31 42 -32 39 -2 -4 36 -4 37 -20 37 -8 0 -15 5 -15 10 0 6 11
10 25 10 14 0 25 5 25 10 0 6 7 10 15 10 8 0 15 -8 15 -17 0 -15 4 -13 19 7
11 13 18 28 15 31 -2 4 1 9 7 11 7 2 8 17 4 41 -7 35 -9 38 -35 32 -31 -7 -51
12 -29 26 9 6 1 7 -23 3 -26 -4 -38 -2 -38 5 0 6 6 14 13 17 20 7 17 36 -5 42
-10 2 -18 11 -18 18 0 8 -4 14 -8 14 -5 0 -19 9 -31 19 -27 23 -51 17 -51 -12
0 -11 -3 -17 -7 -13 -4 4 -8 15 -8 24 0 9 -8 18 -19 20 -13 3 -16 0 -10 -10
12 -19 15 -78 3 -78 -6 0 -7 -4 -4 -10 3 -5 -3 -10 -15 -10 -17 0 -20 -4 -15
-19 4 -13 -2 -27 -16 -40 -25 -23 -39 -27 -39 -11 0 5 -7 7 -16 3 -10 -4 -12
-8 -5 -12 14 -9 9 -72 -6 -89 -7 -7 -13 -20 -13 -28 0 -8 -3 -14 -8 -14 -4 0
-13 -13 -20 -30 -7 -16 -27 -44 -43 -61 -16 -17 -29 -36 -29 -41 0 -16 -40
-78 -51 -78 -4 0 -6 14 -2 30 3 18 1 30 -5 30 -12 0 -27 55 -23 85 1 11 11 27
22 37 23 19 25 30 4 22 -11 -4 -13 -2 -9 9 3 8 0 18 -6 22 -8 5 -4 12 10 22
19 13 24 13 31 2 12 -19 11 -2 -1 21 -8 15 -6 20 11 25 19 6 19 8 5 30 -10 15
-12 26 -6 30 13 8 67 -34 73 -57 6 -22 40 -23 57 -3 10 12 10 15 -3 15 -17 0
-29 68 -14 73 6 2 5 13 -2 26 -9 17 -10 30 -2 54 8 22 8 33 0 37 -13 8 -9 52
6 62 7 5 6 14 -3 28 -13 21 -10 23 41 23 9 0 17 6 17 13 0 7 -6 11 -14 8 -15
-6 -30 22 -16 31 10 6 7 55 -4 74 -4 6 -17 11 -30 11 -12 0 -27 5 -34 12 -17
17 -45 19 -54 5 -12 -18 -10 -27 6 -27 8 0 17 -8 21 -17 5 -15 4 -16 -6 -5
-16 15 -51 16 -67 0 -9 -9 -12 -8 -12 5 0 12 -8 17 -31 17 -17 0 -28 4 -24 10
3 6 1 10 -5 10 -6 0 -8 5 -4 12 4 6 -1 17 -10 24 -25 17 -6 24 39 14 21 -5 43
-6 47 -4 5 3 8 2 7 -3 -3 -18 2 -33 11 -33 5 0 7 13 4 30 -4 19 -2 30 5 30 6
0 11 5 11 10 0 5 -6 9 -12 8 -15 -3 -16 81 -1 91 20 14 -3 117 -33 149 -18 18
-44 15 -44 -6z m2 -1031 c-11 -6 -8 -14 13 -36 14 -16 24 -36 23 -44 -4 -21
-24 -14 -21 7 1 10 0 11 -3 5 -3 -7 -12 -13 -20 -13 -9 0 -12 5 -8 13 4 6 -1
4 -11 -5 -26 -25 -29 -68 -4 -68 24 0 24 -18 -1 -50 -11 -14 -20 -30 -20 -36
0 -11 -28 -29 -41 -26 -4 1 -5 -8 -2 -18 6 -23 -14 -53 -30 -43 -5 3 -7 2 -4
-4 3 -5 -3 -24 -14 -42 -14 -24 -23 -30 -32 -23 -9 8 -12 2 -13 -22 0 -19 -13
-51 -32 -78 -18 -26 -32 -49 -32 -53 0 -3 -11 -21 -25 -39 -13 -17 -30 -45
-37 -61 -8 -17 -30 -55 -49 -85 -20 -30 -53 -86 -74 -125 -21 -38 -61 -112
-88 -163 -28 -50 -52 -90 -54 -89 -11 12 452 941 477 957 5 3 14 17 20 30 34
74 66 120 84 120 7 0 6 -4 -2 -9z"/>
</g>
</svg>
